<?xml version="1.0" encoding="utf-8"?><svg xmlns="http://www.w3.org/2000/svg" xmlns:xlink="http://www.w3.org/1999/xlink"><symbol fill="none" viewBox="0 0 25 24" id="airbus" xmlns="http://www.w3.org/2000/svg"><path d="M3.5 20V4l19 8-19 8Zm2-3 11.85-5L5.5 7v3.5l6 1.5-6 1.5V17Z" fill="#455A64"/></symbol><symbol fill="none" viewBox="0 0 25 24" id="airbus-white" xmlns="http://www.w3.org/2000/svg"><path d="M3.5 20V4l19 8-19 8Zm2-3 11.85-5L5.5 7v3.5l6 1.5-6 1.5V17Z" fill="#fff"/></symbol><symbol fill="none" viewBox="0 0 32 32" id="arrow-accordion" xmlns="http://www.w3.org/2000/svg"><path d="m16.003 20-6.667-6.667h13.333L16.003 20Z" fill="#F48A0B"/></symbol><symbol fill="none" viewBox="0 0 45 23" id="arrow-btn-right" xmlns="http://www.w3.org/2000/svg"><path fill-rule="evenodd" clip-rule="evenodd" d="M36.5.5h4l4 11-3.5 11h-4l2.864-9H16v-4h23.773L36.5.5ZM0 9.5v4h4v-4H0Zm8 4v-4h4v4H8Z" fill="#fff"/></symbol><symbol fill="none" viewBox="0 0 45 23" id="arrow-btn-right-gray" xmlns="http://www.w3.org/2000/svg"><path fill-rule="evenodd" clip-rule="evenodd" d="M36.5.5h4l4 11-3.5 11h-4l2.864-9H16v-4h23.773L36.5.5ZM0 9.5v4h4v-4H0Zm8 4v-4h4v4H8Z" fill="#607D8B"/></symbol><symbol fill="none" viewBox="0 0 45 22" id="arrow-btn-right-orange" xmlns="http://www.w3.org/2000/svg"><path fill-rule="evenodd" clip-rule="evenodd" d="M36.5 0h4l4 11L41 22h-4l2.864-9H16V9h23.773L36.5 0ZM0 9v4h4V9H0Zm8 4V9h4v4H8Z" fill="#F48A0B"/></symbol><symbol fill="none" viewBox="0 0 32 16" id="arrow-slider-left" xmlns="http://www.w3.org/2000/svg"><path fill-rule="evenodd" clip-rule="evenodd" d="M5.753.09H2.876L0 8l2.517 7.91h2.876L3.334 9.438h17.16V6.562H3.4L5.753.09ZM32 6.562v2.876h-2.876V6.562H32Zm-5.753 2.876V6.562h-2.876v2.876h2.876Z" fill="#000"/></symbol><symbol fill="none" viewBox="0 0 32 16" id="arrow-slider-right" xmlns="http://www.w3.org/2000/svg"><path fill-rule="evenodd" clip-rule="evenodd" d="M26.247.09h2.877L32 8l-2.517 7.91h-2.876l2.059-6.472h-17.16V6.562H28.6L26.247.09ZM0 6.562v2.876h2.876V6.562H0Zm5.753 2.876V6.562h2.876v2.876H5.753Z" fill="#000"/></symbol><symbol fill="none" viewBox="0 0 32 32" id="calendar" xmlns="http://www.w3.org/2000/svg"><path d="M6.222 10.889h19.556V7.11H6.222v3.778Zm0 18.444c-.6 0-1.12-.22-1.561-.66C4.221 28.23 4 27.71 4 27.11v-20c0-.6.22-1.12.661-1.561.44-.44.961-.661 1.561-.661h1.889V2.666h2.333V4.89h11.112V2.666h2.333V4.89h1.889c.6 0 1.12.22 1.561.66.44.441.661.962.661 1.562v9.345c-.35-.175-.71-.32-1.08-.437a8.548 8.548 0 0 0-1.142-.275v-2.633H6.222v14h9.889c.14.415.306.804.495 1.166.189.364.413.715.672 1.056H6.222Zm18.022 1.334c-1.776 0-3.29-.627-4.543-1.879-1.253-1.252-1.879-2.767-1.879-4.544 0-1.776.626-3.291 1.879-4.543 1.252-1.253 2.767-1.879 4.543-1.879 1.777 0 3.292.626 4.544 1.879 1.253 1.252 1.879 2.767 1.879 4.543 0 1.777-.626 3.292-1.879 4.544-1.252 1.252-2.767 1.878-4.544 1.878Zm2.04-3.123.927-.933-2.5-2.5v-3.733H23.4V24.6l2.883 2.944Z" fill="#F48A0B"/></symbol><symbol fill="none" viewBox="0 0 32 32" id="calendar-orange" xmlns="http://www.w3.org/2000/svg"><path d="M6.222 10.89h19.556V7.111H6.222v3.777Zm0 18.444c-.6 0-1.12-.22-1.561-.661-.44-.441-.661-.961-.661-1.561v-20c0-.6.22-1.12.661-1.561.44-.441.961-.661 1.561-.661h1.889V2.667h2.333V4.89h11.112V2.667h2.333V4.89h1.889c.6 0 1.12.22 1.561.66.44.441.661.962.661 1.562v9.344c-.35-.174-.71-.32-1.08-.436a8.563 8.563 0 0 0-1.142-.275v-2.633H6.222v14h9.889c.14.414.306.803.495 1.166.189.363.413.715.672 1.056H6.222Zm18.022 1.333c-1.776 0-3.29-.626-4.543-1.878-1.253-1.253-1.879-2.767-1.879-4.544 0-1.777.626-3.291 1.879-4.544 1.252-1.252 2.767-1.878 4.543-1.878 1.777 0 3.292.626 4.544 1.878 1.253 1.253 1.879 2.767 1.879 4.544 0 1.777-.626 3.291-1.879 4.544-1.252 1.252-2.767 1.878-4.544 1.878Zm2.04-3.122.927-.934-2.5-2.5v-3.733H23.4v4.223l2.883 2.944Z" fill="#F48A0B"/></symbol><symbol fill="none" viewBox="0 0 24 24" id="check-gray" xmlns="http://www.w3.org/2000/svg"><path d="m9.55 18-5.7-5.7 1.425-1.425L9.55 15.15l9.175-9.175L20.15 7.4 9.55 18Z" fill="#607D8B"/></symbol><symbol fill="none" viewBox="0 0 24 24" id="check-white" xmlns="http://www.w3.org/2000/svg"><path d="m9.55 18-5.7-5.7 1.425-1.425L9.55 15.15l9.175-9.175L20.15 7.4 9.55 18Z" fill="#fff"/></symbol><symbol fill="none" viewBox="0 0 24 25" id="chevron-right" xmlns="http://www.w3.org/2000/svg"><path d="M12.6 12.542 8 7.942l1.4-1.4 6 6-6 6-1.4-1.4 4.6-4.6Z" fill="#607D8B"/></symbol><symbol fill="none" viewBox="0 0 325 435" id="decor-tender-big" xmlns="http://www.w3.org/2000/svg"><path d="M80.164 0 .36 434.312h54.865l69.829-384.391h74.816l40.42 239.62H125.054l-9.976 49.921h133.633l16 94.85h59.853L244.76 0H80.164Z" fill="#F48A0B"/><path d="M324.557 434.312 244.753 0h-82.298l.451 49.92h36.957l40.42 239.621h-77.377v49.921h85.798l16 94.85h59.853Z" fill="#fff"/></symbol><symbol fill="none" viewBox="0 0 40 40" id="document-scanner" xmlns="http://www.w3.org/2000/svg"><path d="M3.333 10V1.667h8.334V5h-5v5H3.334Zm30 0V5h-5V1.667h8.334V10h-3.334Zm-30 28.334V30h3.334v5h5v3.334H3.333Zm25 0V35h5v-5h3.334v8.334h-8.334ZM11.668 30h16.666V10H11.668v20Zm0 3.334a3.21 3.21 0 0 1-2.354-.98A3.21 3.21 0 0 1 8.333 30V10c0-.916.327-1.701.98-2.354a3.21 3.21 0 0 1 2.354-.979h16.666a3.21 3.21 0 0 1 2.355.98A3.21 3.21 0 0 1 31.667 10v20a3.21 3.21 0 0 1-.98 2.355 3.21 3.21 0 0 1-2.354.979H11.668ZM15 16.667h10v-3.333H15v3.333Zm0 5h10v-3.333H15v3.333Zm0 5h10v-3.333H15v3.333Z" fill="#F48A0B"/></symbol><symbol fill="none" viewBox="0 0 40 40" id="email-icon" xmlns="http://www.w3.org/2000/svg"><path d="M6.667 33.333a3.21 3.21 0 0 1-2.355-.98A3.21 3.21 0 0 1 3.333 30V10c0-.916.327-1.701.98-2.354a3.21 3.21 0 0 1 2.354-.979h26.666a3.21 3.21 0 0 1 2.355.98 3.21 3.21 0 0 1 .979 2.353v20a3.21 3.21 0 0 1-.98 2.354 3.21 3.21 0 0 1-2.354.98H6.667ZM20 21.666 6.667 13.333v16.666h26.666V13.333L20 21.666Zm0-3.333 13.333-8.334H6.667L20 18.333Zm-13.333-5V9.999v20-16.666Z" fill="#F48A0B"/></symbol><symbol fill="none" viewBox="0 0 40 40" id="file-download" xmlns="http://www.w3.org/2000/svg"><g clip-path="url(#aqa)" fill="#455A64"><path d="M29.058 17.316v-7.57c0-.217-.1-.417-.241-.575L20.33.258A.846.846 0 0 0 19.72 0H6.265C3.781 0 1.797 2.026 1.797 4.51v25.444a4.455 4.455 0 0 0 4.468 4.477h10.622c2.008 3.335 5.66 5.569 9.82 5.569 6.32 0 11.48-5.136 11.48-11.463.008-5.527-3.96-10.146-9.129-11.221Zm-8.503-14.39 5.694 5.994h-3.694c-1.1 0-2-.908-2-2.009V2.926ZM6.265 32.764c-1.559 0-2.8-1.251-2.8-2.81V4.51c0-1.567 1.241-2.843 2.8-2.843h12.622v5.244a3.675 3.675 0 0 0 3.668 3.677h4.836v6.51c-.25-.008-.45-.033-.667-.033-2.91 0-5.586 1.118-7.603 2.868H8.533a.836.836 0 0 0-.834.834c0 .459.375.834.834.834h9.037c-.592.833-1.084 1.667-1.467 2.584h-7.57a.836.836 0 0 0-.834.834c0 .458.375.834.834.834h7.028c-.209.833-.317 1.759-.317 2.684 0 1.5.292 2.985.817 4.235H6.265v-.008Zm20.45 5.577c-5.402 0-9.795-4.394-9.795-9.796 0-5.402 4.385-9.796 9.796-9.796 5.41 0 9.795 4.394 9.795 9.796 0 5.402-4.393 9.796-9.795 9.796Z"/><path d="M8.537 17.424h8.445a.836.836 0 0 0 .834-.834.836.836 0 0 0-.834-.833H8.537a.836.836 0 0 0-.834.833c0 .459.375.834.834.834ZM30.987 28.37l-3.427 3.693V22.96a.836.836 0 0 0-.833-.834.836.836 0 0 0-.834.834v9.103L22.44 28.37a.841.841 0 0 0-1.183-.042.83.83 0 0 0-.042 1.176l4.877 5.244a.84.84 0 0 0 .609.267c.233 0 .45-.1.608-.267l4.886-5.244a.83.83 0 0 0-.034-1.176.831.831 0 0 0-1.175.042Z"/></g><defs><clipPath id="aqa"><path fill="#fff" d="M0 0h40v40H0z"/></clipPath></defs></symbol><symbol fill="none" viewBox="0 0 507 154" id="full-word" xmlns="http://www.w3.org/2000/svg"><path d="M440.883 1.057h19.428v20.197h14.812c7.245 0 12.887 2.116 16.927 6.348 4.104 4.168 6.155 9.361 6.155 15.58 0 6.284-2.051 11.542-6.155 15.774-4.04 4.168-9.682 6.251-16.927 6.251h-34.24V1.057Zm31.739 37.124h-12.311v10.1h12.311c1.731 0 3.142-.418 4.232-1.251 1.09-.898 1.635-2.18 1.635-3.847 0-1.603-.545-2.822-1.635-3.655-1.09-.898-2.501-1.347-4.232-1.347ZM365.379 66.362v-17.12c2.949 0 5.354-1.186 7.213-3.559 1.86-2.436 3.142-6.54 3.847-12.31l3.944-32.316h50.109v64.15h-19.428V17.984h-13.177l-2.116 16.831c-.769 6.092-2.084 11.285-3.943 15.581-1.795 4.232-4.104 7.47-6.925 9.714-2.757 2.244-5.706 3.847-8.848 4.809-3.142.962-6.701 1.443-10.676 1.443ZM315.175 65.207h-18.659V1.057h19.428v34.24l22.314-34.24h20.005v64.15h-19.428V28.852l-23.66 36.355ZM257.536 65.207h-19.428v-6.54c-10.323-.961-18.242-3.558-23.756-7.79-5.514-4.296-8.271-10.195-8.271-17.697 0-7.502 2.757-13.369 8.271-17.6 5.514-4.232 13.433-6.83 23.756-7.79V1.056h19.428v6.732c10.323.962 18.242 3.59 23.756 7.887 5.514 4.232 8.272 10.066 8.272 17.504 0 7.502-2.79 13.401-8.368 17.697-5.514 4.232-13.401 6.829-23.66 7.79v6.54ZM225.797 33.18c0 4.553 4.104 7.31 12.311 8.272V24.909c-8.207 1.026-12.311 3.783-12.311 8.271Zm44.05 0c0-4.488-4.104-7.245-12.311-8.271v16.543c8.207-.962 12.311-3.72 12.311-8.272ZM192.559 57.13c-6.668 6.155-15.004 9.233-25.006 9.233-10.003 0-18.37-3.078-25.103-9.233-6.668-6.22-10.002-14.202-10.002-23.949 0-9.746 3.334-17.696 10.002-23.852C149.183 3.11 157.55 0 167.553 0c10.002 0 18.338 3.11 25.006 9.33 6.733 6.155 10.099 14.105 10.099 23.852 0 9.746-3.366 17.728-10.099 23.948Zm-36.163-12.503c2.885 3.077 6.604 4.616 11.157 4.616 4.552 0 8.239-1.539 11.06-4.616 2.886-3.078 4.328-6.893 4.328-11.446 0-4.552-1.442-8.367-4.328-11.445-2.821-3.077-6.508-4.616-11.06-4.616-4.553 0-8.272 1.539-11.157 4.616-2.821 3.078-4.232 6.893-4.232 11.445 0 4.553 1.411 8.368 4.232 11.446ZM91.653 65.207H72.225V1.057h34.24c7.245 0 12.888 2.116 16.927 6.347 4.104 4.168 6.156 9.394 6.156 15.677 0 6.22-2.052 11.446-6.156 15.677-4.039 4.168-9.682 6.252-16.927 6.252H91.653v20.197Zm12.311-37.124c1.732 0 3.142-.417 4.232-1.25 1.09-.898 1.635-2.149 1.635-3.752 0-1.667-.545-2.917-1.635-3.75-1.09-.898-2.5-1.347-4.232-1.347h-12.31v10.099h12.31ZM61.843 65.207H42.415V17.984H19.428v47.223H0V1.057h61.843v64.15Z" fill="#16161C"/><path d="M290.312 153.554h-22.025l-2.308-7.502h-23.083l-2.308 7.502h-22.025l23.66-64.15h24.429l23.66 64.15Zm-29.527-24.429-6.348-20.678-6.347 20.678h12.695ZM215.063 153.554h-19.428v-38.567l-14.331 38.567h-8.656l-14.33-38.567v38.567H138.89v-64.15h26.833l11.253 30.776 11.253-30.777h26.834v64.151ZM94.635 153.554H75.207v-64.15h34.24c7.245 0 12.888 2.115 16.927 6.347 4.104 4.168 6.155 9.394 6.155 15.677 0 6.22-2.051 11.445-6.155 15.677-4.039 4.168-9.682 6.252-16.927 6.252H94.635v20.197Zm12.311-37.125c1.731 0 3.142-.416 4.232-1.25 1.09-.898 1.635-2.148 1.635-3.751 0-1.667-.545-2.917-1.635-3.751-1.09-.897-2.501-1.346-4.232-1.346h-12.31v10.098h12.31ZM71.749 153.554H49.724l-2.308-7.502H24.333l-2.308 7.502H0l23.66-64.15h24.43l23.659 64.15Zm-29.527-24.429-6.348-20.678-6.347 20.678h12.695Z" fill="#F48A0B"/></symbol><symbol fill="none" viewBox="0 0 80 80" id="gost" xmlns="http://www.w3.org/2000/svg"><g clip-path="url(#asa)" fill="#F48A0B"><path d="M64.013 43.422 49.357 58.078l-6.661-6.662-7.209 7.208 13.87 13.87L71.222 50.63l-7.209-7.208ZM49.357 68.737 39.245 58.624l3.45-3.45 6.663 6.662L64.013 47.18l3.451 3.45-18.106 18.107ZM37.366 17.32h21.318v2.665H37.366V17.32ZM37.366 23.982h21.318v2.665H37.366v-2.665ZM10.719 34.642h22.65v2.664h-22.65v-2.664ZM10.719 41.303h17.32v2.665H10.72v-2.665ZM33.369 13.324h-22.65v15.989h22.65V13.324Zm-2.665 13.324h-17.32V15.989h17.32v10.659Z"/><path d="M65.347 38.082V9.327h4.1l-.239-1.546a9.09 9.09 0 0 0-2.597-5.038A9.204 9.204 0 0 0 60.017 0H13.384a9.335 9.335 0 0 0-9.326 9.327v66.618H40.51a22.634 22.634 0 0 0 22.937 1.723 22.647 22.647 0 0 0 12.62-19.236 22.656 22.656 0 0 0-10.72-20.35Zm-5.33-35.417a6.718 6.718 0 0 1 6.115 3.997H22.32a8.906 8.906 0 0 0-2.342-3.92c-.03-.025-.062-.056-.093-.077h40.132ZM6.722 73.28V9.327A6.661 6.661 0 0 1 10.84 3.17a6.677 6.677 0 0 1 7.26 1.452 6.461 6.461 0 0 1 1.838 3.586l.187 1.119h42.558v27.329c-9.967-4.513-21.73-1.255-27.954 7.739-6.225 8.988-5.132 21.146 2.597 28.885H6.722Zm58.625 0c-.427.307-.854.614-1.307.895l-.734.438c-.89.52-1.821.968-2.784 1.332a19.992 19.992 0 0 1-19.158-2.665 13.403 13.403 0 0 1-.88-.707 19.98 19.98 0 0 1-5.896-22.13 19.99 19.99 0 0 1 18.767-13.137 19.643 19.643 0 0 1 9.327 2.306l.078.042a19.97 19.97 0 0 1 10.524 16.102 19.993 19.993 0 0 1-7.938 17.524Z"/><path d="M10.719 47.965h17.32v2.665H10.72v-2.665Z"/></g><defs><clipPath id="asa"><path fill="#fff" d="M0 0h80v80H0z"/></clipPath></defs></symbol><symbol fill="none" viewBox="0 0 80 80" id="implement" xmlns="http://www.w3.org/2000/svg"><g clip-path="url(#ata)" fill="#F48A0B"><path d="M6.667 80h60c.736 0 1.333-.597 1.333-1.333V44h-2.667v33.334H6.667a4 4 0 0 1 0-8h2.666c.737 0 1.334-.597 1.334-1.334V28H32v-2.666H10.667V16c0-.736-.597-1.333-1.334-1.333H6.667A6.674 6.674 0 0 0 0 21.334v52A6.674 6.674 0 0 0 6.667 80Zm-4-53.333v-5.333a4 4 0 0 1 4-4H8v49.333H6.667a6.64 6.64 0 0 0-4 1.333V26.667Z"/><path d="M30.667 32h-16c-.737 0-1.334.597-1.334 1.333V44c0 .736.597 1.333 1.334 1.333h16c.736 0 1.333-.597 1.333-1.333v-4h5.333v-2.667H32v-4c0-.736-.597-1.333-1.333-1.333Zm-1.334 10.667H16v-8h13.333v8ZM44 69.333h16c.736 0 1.333-.597 1.333-1.333V57.333c0-.736-.597-1.333-1.333-1.333h-6.667v-8h-2.666v8H44c-.736 0-1.333.597-1.333 1.333v4H32v-4c0-.736-.597-1.333-1.333-1.333h-16c-.737 0-1.334.597-1.334 1.333V68c0 .736.597 1.333 1.334 1.333h16c.736 0 1.333-.597 1.333-1.333v-4h10.667v4c0 .736.597 1.333 1.333 1.333Zm1.333-10.666h13.334v8H45.333v-8Zm-16 8H16v-8h13.333v8ZM57.333 10.667c-6.627 0-12 5.372-12 12s5.373 12 12 12c6.628 0 12-5.372 12-12-.007-6.624-5.375-11.993-12-12Zm0 21.333A9.333 9.333 0 0 1 48 22.667a9.333 9.333 0 0 1 9.333-9.333 9.333 9.333 0 0 1 9.334 9.333A9.344 9.344 0 0 1 57.333 32Z"/><path d="M78.667 28c.736 0 1.333-.597 1.333-1.333v-8c0-.737-.597-1.334-1.333-1.334h-4.858a17.662 17.662 0 0 0-1.054-2.546l3.44-3.428a1.334 1.334 0 0 0 0-1.888l-5.662-5.667a1.334 1.334 0 0 0-1.885.001l-3.434 3.44a17.74 17.74 0 0 0-2.547-1.054V1.333C62.667.597 62.07 0 61.333 0h-8C52.597 0 52 .597 52 1.333v4.858a17.74 17.74 0 0 0-2.547 1.054l-3.429-3.44a1.335 1.335 0 0 0-1.885-.001L38.47 9.467a1.334 1.334 0 0 0 0 1.888l3.44 3.428c-.418.821-.77 1.674-1.054 2.55H36c-.736 0-1.333.597-1.333 1.334v8c0 .736.597 1.333 1.333 1.333h4.857c.285.875.638 1.727 1.055 2.547l-3.44 3.428a1.333 1.333 0 0 0 0 1.889l5.661 5.652c.521.52 1.365.52 1.886 0l3.429-3.428c.822.417 1.676.77 2.552 1.055V44c0 .736.597 1.333 1.333 1.333h8c.737 0 1.334-.597 1.334-1.333v-4.857a17.763 17.763 0 0 0 2.548-1.055l3.429 3.428c.52.52 1.363.52 1.884 0l5.667-5.653a1.332 1.332 0 0 0 0-1.89l-3.44-3.427c.417-.82.77-1.672 1.054-2.546h4.858Zm-7.142-1.673a15.247 15.247 0 0 1-1.57 3.788 1.333 1.333 0 0 0 .21 1.616l3.2 3.189-3.777 3.77-3.188-3.193a1.334 1.334 0 0 0-1.615-.21 15.188 15.188 0 0 1-3.788 1.57 1.334 1.334 0 0 0-.997 1.29v4.52h-5.333v-4.52c0-.606-.409-1.135-.994-1.29a15.188 15.188 0 0 1-3.788-1.57 1.334 1.334 0 0 0-1.614.21l-3.19 3.191-3.778-3.768 3.2-3.19c.43-.427.516-1.091.21-1.615a15.247 15.247 0 0 1-1.57-3.788 1.333 1.333 0 0 0-1.29-.994h-4.52V20h4.52c.605 0 1.134-.408 1.288-.994.351-1.327.88-2.601 1.571-3.787a1.333 1.333 0 0 0-.21-1.616l-3.2-3.19 3.778-3.78 3.19 3.2c.429.43 1.093.517 1.617.211a15.186 15.186 0 0 1 3.788-1.57c.584-.154.991-.683.992-1.287v-4.52H60v4.52c0 .605.408 1.135.993 1.289 1.328.35 2.603.878 3.788 1.57.525.306 1.19.22 1.619-.211l3.19-3.2 3.78 3.778-3.2 3.191a1.332 1.332 0 0 0-.211 1.616 15.27 15.27 0 0 1 1.57 3.788c.155.583.681.99 1.284.992h4.52v5.333h-4.52c-.605.001-1.133.409-1.288.994Z"/><path d="M57.333 17.333a5.334 5.334 0 1 0 0 10.667 5.334 5.334 0 0 0 0-10.667Zm0 8a2.667 2.667 0 1 1 0-5.334 2.667 2.667 0 0 1 0 5.334Z"/></g><defs><clipPath id="ata"><path fill="#fff" d="M0 0h80v80H0z"/></clipPath></defs></symbol><symbol fill="none" viewBox="0 0 80 80" id="insurance" xmlns="http://www.w3.org/2000/svg"><path d="M72 14.4a1.6 1.6 0 0 0-1.08-1.488l-30.4-10.4a1.544 1.544 0 0 0-1.04 0l-30.4 10.4A1.6 1.6 0 0 0 8 14.4l-.08 4.72c-.24 14.536.936 24.968 3.608 31.904a42.223 42.223 0 0 0 8.888 14.04 51.768 51.768 0 0 0 16.136 11.12l2.784 1.272a1.601 1.601 0 0 0 1.328 0l2.784-1.272a51.77 51.77 0 0 0 16.136-11.12 42.226 42.226 0 0 0 8.896-14.048c2.672-6.936 3.848-17.368 3.608-31.904L72 14.4Zm-6.504 35.464a38.97 38.97 0 0 1-8.224 12.992 48.802 48.802 0 0 1-15.144 10.4L40 74.24l-2.128-.968a48.8 48.8 0 0 1-15.144-10.4 38.967 38.967 0 0 1-8.224-13.008C12 43.32 10.872 33.28 11.112 19.2l.056-3.6L40 5.688l28.8 9.88.056 3.6c.272 14.112-.856 24.152-3.36 30.696Z" fill="#F48A0B"/><path d="M64 20a1.6 1.6 0 0 0-1.08-1.496l-22.4-7.68a1.649 1.649 0 0 0-1.04 0l-22.4 7.68A1.6 1.6 0 0 0 16 20v.152c-.216 12.688.8 22.352 2.968 27.952a33.344 33.344 0 0 0 7.056 11.152 42.512 42.512 0 0 0 13.216 9.112l.096.04c.206.102.434.154.664.152a1.6 1.6 0 0 0 .664-.144l.096-.048a42.512 42.512 0 0 0 13.232-9.08 33.342 33.342 0 0 0 7.056-11.152c2.152-5.6 3.2-15.264 2.968-27.944L64 20Zm-5.96 26.96a30.206 30.206 0 0 1-6.4 10.08A38.902 38.902 0 0 1 40 65.192a38.904 38.904 0 0 1-11.68-8.12 30.207 30.207 0 0 1-6.4-10.08C20 41.904 19.024 33.008 19.2 21.2L40 14.064 60.8 21.2c.176 11.8-.8 20.704-2.744 25.792l-.016-.032Z" fill="#F48A0B"/><path d="M47.512 32.264 36.104 43.672l-3.616-3.616a1.6 1.6 0 1 0-2.264 2.264l4.744 4.744a1.602 1.602 0 0 0 1.136.472 1.6 1.6 0 0 0 1.128-.472l12.544-12.536a1.598 1.598 0 0 0 0-2.264 1.6 1.6 0 0 0-2.264 0Z" fill="#F48A0B"/></symbol><symbol fill="none" viewBox="0 0 265 87" id="logo" xmlns="http://www.w3.org/2000/svg"><path d="M15.932 0 0 86.705h10.953l13.94-76.739H39.83l8.07 47.837H24.893l-1.992 9.966H49.58l3.195 18.936h11.949L48.791 0h-32.86Z" fill="#F4890B"/><path d="M115.584 42.795h-6.6V26.752h-7.809v16.043h-6.6V21.002h21.009v21.793Zm10.128 0h-6.6V21.002h11.632c5.097 0 7.842 3.398 7.842 7.482 0 4.051-2.745 7.45-7.842 7.45h-5.032v6.86Zm4.182-12.612c1.111 0 1.993-.555 1.993-1.699 0-1.176-.882-1.732-1.993-1.732h-4.182v3.431h4.182Zm21.601 13.004c-6.731 0-11.926-4.574-11.926-11.272s5.195-11.273 11.926-11.273 11.926 4.575 11.926 11.273c0 6.698-5.195 11.272-11.926 11.272Zm0-5.816c3.169 0 5.228-2.418 5.228-5.456 0-3.039-2.059-5.457-5.228-5.457-3.169 0-5.228 2.418-5.228 5.457 0 3.038 2.059 5.456 5.228 5.456Zm30.57 5.424h-6.6v-2.222c-6.894-.653-10.88-3.496-10.88-8.658 0-5.163 3.986-7.973 10.88-8.626v-2.287h6.6v2.287c6.861.653 10.88 3.463 10.88 8.626 0 5.162-4.019 8.005-10.88 8.658v2.222Zm-10.782-10.88c0 1.568 1.372 2.483 4.182 2.81v-5.62c-2.81.36-4.182 1.241-4.182 2.81Zm14.964 0c0-1.569-1.372-2.45-4.182-2.81v5.62c2.81-.327 4.182-1.242 4.182-2.81Zm15.399 10.88h-6.339V21.002h6.6v11.631l7.58-11.631h6.796v21.793h-6.6v-12.35l-8.037 12.35Zm17.055.392v-5.816c1.863 0 3.235-1.241 3.758-5.39L223.798 21h17.023v21.794h-6.6V26.752h-4.476l-.719 5.718c-1.045 8.593-5.26 10.717-10.325 10.717Zm25.648-22.185h6.6v6.861h5.032c5.097 0 7.841 3.398 7.841 7.45 0 4.084-2.744 7.482-7.841 7.482h-11.632V21.002Zm10.782 12.612h-4.182v3.43h4.182c1.111 0 1.993-.555 1.993-1.731 0-1.144-.882-1.7-1.993-1.7Z" fill="#16161C"/><path d="M116.597 78.91h-7.482l-.784-2.548h-7.842l-.784 2.548h-7.482l8.038-21.793h8.299l8.037 21.793Zm-10.031-8.299-2.156-7.025-2.156 7.025h4.312Zm17.806 8.3h-6.6V57.116h11.632c5.097 0 7.841 3.398 7.841 7.482 0 4.052-2.744 7.45-7.841 7.45h-5.032v6.861Zm4.182-12.613c1.111 0 1.993-.555 1.993-1.699 0-1.176-.882-1.731-1.993-1.731h-4.182v3.43h4.182Zm36.729 12.612h-6.6V65.808l-4.869 13.102h-2.94l-4.869-13.102V78.91h-6.6V57.117h9.116l3.823 10.456 3.823-10.456h9.116V78.91Zm25.563 0h-7.482l-.784-2.548h-7.842l-.784 2.548h-7.482l8.037-21.793h8.299l8.038 21.793Zm-10.031-8.299-2.156-7.025-2.157 7.025h4.313Z" fill="#F38707"/><path d="M64.725 86.705 48.793 0h-16.43v9.966h7.468l8.07 47.837H32.363v9.966h17.219l3.194 18.936h11.949Z" fill="#16161C"/></symbol><symbol fill="none" viewBox="0 0 196 262" id="logo-decor-white" xmlns="http://www.w3.org/2000/svg"><path d="M48.564 0 .422 262H33.52L75.644 30.115h45.133l24.384 144.552H75.644l-6.018 30.115h80.615L159.893 262h36.106L147.857 0H48.564Z" fill="#fff"/><path d="M196 262 147.858 0H98.211v30.115h22.567l24.383 144.552h-46.95v30.115h52.03L159.893 262H196Z" fill="#F5F6F7"/></symbol><symbol fill="none" viewBox="0 0 550 262" id="logo-decor-white-bg" xmlns="http://www.w3.org/2000/svg"><path fill="#fff" d="M98 0h452v262H98z"/><path d="M48.564 0 .422 262H33.52L75.644 30.115h45.133l24.384 144.552H75.644l-6.018 30.115h80.615L159.893 262h36.106L147.857 0H48.564Z" fill="#fff"/><path d="M196 262 147.858 0H98.211v30.115h22.567l24.383 144.552h-46.95v30.115h52.03L159.893 262H196Z" fill="#F5F6F7"/></symbol><symbol fill="none" viewBox="0 0 79 93" id="logo-inf" xmlns="http://www.w3.org/2000/svg"><g clip-path="url(#axa)"><path d="M41.796 80.395v11.38c0 .235.236.353.353.353a41.407 41.407 0 0 0 7.77-1.408c.119 0 .236-.235.236-.352V62.445c0-.234-.117-.352-.353-.352-2.472-.234-5.063-.469-7.653-.586-.235 0-.353.117-.353.352v10.09h-4.474v-10.09c0-.235-.118-.352-.353-.352-2.59.117-5.18.235-7.653.47-.235 0-.353.116-.353.351V90.25c0 .118.118.352.235.352a41.334 41.334 0 0 0 7.771 1.408c.235 0 .353-.117.353-.352v-11.38h4.474v.117ZM26.609 62.445c-3.18.47-6.24 1.056-9.184 1.878-.117 0-.235.117-.235.234l-3.532 7.509h-.707V66.2c0-.235-.235-.47-.47-.352a45.874 45.874 0 0 0-6.005 2.463c-.353.235-.706.352-1.06.587-.117.117-.235.352-.117.47 2.708 5.044 6.122 9.62 10.007 13.257.118.117.471.117.589-.118l2.12-4.34h.588v7.038c0 .118 0 .235.117.235 2.355 1.76 4.945 3.168 7.771 4.34.236.118.471-.116.471-.35V62.796c0-.234-.235-.47-.353-.352ZM70.406 67.842c-.824-.587-3.767-2.112-5.533-2.816-.118-.117-.353 0-.471.235-.589 1.29-3.297 6.687-3.297 6.687h-.588v-7.625c0-.118-.118-.352-.236-.352-2.472-.587-5.062-1.056-7.652-1.526-.236 0-.354.118-.354.352v26.515c0 .235.236.469.471.352 2.708-1.173 5.298-2.582 7.77-4.341.119-.118.119-.118.119-.235v-4.81c1.53-.117 3.178.47 4.003 1.29 1.766-1.76 3.767-3.988 5.298-6.1a.356.356 0 0 0 0-.47c-.589-.469-1.178-.938-1.884-1.407l2.59-5.397s0-.235-.236-.352Z" fill="#265841"/><path d="M53.336 3.668c.235-.118.235-.47-.118-.587C50.275 1.791 47.096.97 43.8.5c-3.414 11.028-3.414 24.05-3.885 57.37h.942c1.177-25.693 1.413-46.576 12.48-54.202Z" fill="#1E2227"/><path d="M47.33 33.115c4.12-12.201 10.596-18.302 20.368-18.654.235 0 .47-.352.235-.587-2.354-2.815-5.062-5.162-8.006-7.273-9.3 3.285-13.421 11.38-15.658 25.928-1.06 6.804-1.884 15.368-2.355 25.34h.942c.47-7.977 2.355-18.301 4.474-24.754Z" fill="#1E2227"/><path d="M49.33 42.735c7.535-14.548 20.722-16.425 28.021-9.268.236.235.707 0 .589-.352-1.177-4.693-2.943-9.034-5.298-12.905-16.718-4.576-26.961 14.547-28.845 37.777h.942c.942-6.335 1.884-9.855 4.591-15.252Z" fill="#1E2227"/><path d="M78.765 41.093c-6.358-7.509-18.131-9.386-26.255.938-2.943 3.637-5.769 9.034-6.828 16.073.353 0 .706 0 .942.118 1.648-7.04 6.122-10.794 10.242-11.967 9.655-2.933 19.191 4.106 20.015 12.201 0 .352.59.235.707 0C78.53 54.585 79 50.596 79 46.372c0-1.877-.118-3.637-.236-5.28ZM35.087.5c-3.297.47-6.476 1.29-9.42 2.581-.235.117-.235.47-.117.587 11.067 7.508 11.42 28.509 12.48 54.202h.942C38.5 24.55 38.5 11.528 35.086.5Z" fill="#1E2227"/><path d="M34.731 32.528c-2.236-14.547-6.357-22.643-15.776-25.81-2.943 1.994-5.533 4.458-8.006 7.274-.235.234 0 .586.236.586 9.771.352 16.247 6.453 20.368 18.654 2.119 6.336 4.003 16.777 4.474 24.755h.941c-.353-10.09-1.06-18.537-2.237-25.459Z" fill="#1E2227"/><path d="M6.358 20.21C4.003 24.08 2.237 28.422 1.06 33.115c-.118.352.353.587.588.352 7.3-7.157 20.486-5.162 28.021 9.268 2.708 5.28 3.768 8.8 4.592 15.252h.942C33.319 34.757 23.076 15.634 6.358 20.21Z" fill="#1E2227"/><path d="M26.49 42.031c-8.123-10.207-19.897-8.33-26.255-.938C.118 42.735 0 44.495 0 46.137c0 4.224.47 8.213 1.413 12.084a.368.368 0 0 0 .706 0c1.178-7.977 9.772-14.665 20.015-12.2 4.239 1.055 8.595 4.927 10.243 11.966.353 0 .589 0 .942-.117-1.06-6.805-3.885-12.202-6.829-15.839Z" fill="#1E2227"/></g><defs><clipPath id="axa"><path fill="#fff" transform="translate(0 .5)" d="M0 0h79v92H0z"/></clipPath></defs></symbol><symbol fill="none" viewBox="0 0 137 91" id="logo-rosneft" xmlns="http://www.w3.org/2000/svg"><path d="M70.005 65.92H75.2V37.632h-5.196V65.92Zm-6.234 0h5.196V31.346H63.77V65.92Zm-6.232 0h5.194V37.632H57.54V65.92Z" fill="#D9BB6C"/><path d="m87.662 34.485-5.19 5.239V21.897h5.195M81.433 40.77l-5.196 5.242V15.605h5.196m-11.43 20.978h5.199V9.333h-5.198v27.25Zm-6.233-6.287h5.195V3.052H63.77v27.244Zm-6.232 6.287h5.193V9.333h-5.193v27.25Zm-1.04 9.427-5.195-5.24V15.604h5.195M45.07 21.897v12.587l5.193 5.24V21.898M16.163 72.374c2.6 0 4.724 2.11 4.724 4.688v1.006c0 2.193-1.538 4.045-3.594 4.55l4.277 5.33h-6.176l-4.168-5.192H8.702v5.192H2.526V72.375l13.637-.001Zm-7.46 6.748h5.247c.779 0 1.418-.632 1.418-1.406v-.3c0-.776-.638-1.407-1.418-1.407H8.702M46.82 87.947h8.75c2.69 0 4.891-2.218 4.891-4.93 0-2.715-2.2-4.932-4.89-4.932h-6.117a.838.838 0 0 1-.832-.838v-.402c0-.46.374-.836.832-.836h3.998c.458 0 .832.376.832.836v.2h6.17c-.136-2.592-2.28-4.67-4.884-4.67h-8.75c-2.688 0-4.89 2.218-4.89 4.931 0 2.712 2.202 4.93 4.89 4.93h6.118c.457 0 .833.378.833.84v.4a.84.84 0 0 1-.833.84h-4a.838.838 0 0 1-.83-.84v-.2h-6.171c.135 2.59 2.28 4.671 4.883 4.671Zm28.054 0h6.175V72.374h-6.175v8.976l-7.208-8.976h-6.175v15.573h6.175v-8.975m32.367 8.975h6.178v-5.71h9.255v-4.152l-9.255-.027v-1.53h10.413v-4.154h-16.591m-78.46 7.765c0 5.1 3.306 7.808 9.836 7.808s9.836-2.707 9.836-7.808c0-5.102-3.306-7.765-9.836-7.765s-9.835 2.663-9.835 7.765Zm9.836-4.132c2.007 0 3.647 1.408 3.647 3.133v2.041c0 1.724-1.64 3.135-3.647 3.135-2.005 0-3.647-1.41-3.647-3.135v-2.04c0-1.726 1.642-3.134 3.647-3.134Zm50.843 11.94h17.096v-4.152h-10.92v-1.558h9.253v-4.152l-9.254-.027v-1.53H98.84v-4.154H82.252m40.629 15.573h6.179v-11.42h5.415v-4.151H117.31v4.151h5.571" fill="#000"/></symbol><symbol fill="none" viewBox="0 0 182 176" id="logo-trs" xmlns="http://www.w3.org/2000/svg"><path d="M73.345 0 56.57 91.286h11.532L82.78 10.493h15.725l8.496 50.364h-24.22L80.682 71.35h28.088l3.363 19.936h12.58L107.941 0H73.345Z" fill="#F4890B"/><path d="M124.714 91.286 107.94 0H90.643v10.493h7.862l8.496 50.364H90.643V71.35h18.128l3.363 19.936h12.58Z" fill="#fff"/><path d="M159.235 121.236h6.949v7.224h5.297c2.591 0 4.61.756 6.054 2.27 1.468 1.491 2.202 3.348 2.202 5.573 0 2.247-.734 4.128-2.202 5.641-1.444 1.491-3.463 2.236-6.054 2.236h-12.246v-22.944Zm11.352 13.278h-4.403v3.612h4.403c.619 0 1.123-.149 1.513-.447.39-.322.585-.78.585-1.376 0-.574-.195-1.009-.585-1.308-.39-.321-.894-.481-1.513-.481ZM132.232 144.593v-6.123c1.055 0 1.915-.425 2.58-1.273.665-.871 1.124-2.339 1.376-4.403l1.41-11.558h17.922v22.944h-6.948v-16.89h-4.713l-.757 6.02c-.275 2.178-.745 4.036-1.41 5.573-.642 1.513-1.468 2.671-2.477 3.474-.986.803-2.041 1.376-3.165 1.72-1.123.344-2.396.516-3.818.516ZM114.276 144.18h-6.673v-22.944h6.948v12.246l7.981-12.246h7.155v22.944h-6.949v-13.003l-8.462 13.003ZM93.66 144.18h-6.949v-2.339c-3.692-.344-6.524-1.273-8.496-2.786-1.972-1.537-2.959-3.647-2.959-6.33 0-2.683.987-4.781 2.959-6.295 1.972-1.514 4.804-2.442 8.496-2.786v-2.408h6.949v2.408c3.692.344 6.524 1.284 8.497 2.82 1.972 1.514 2.958 3.601 2.958 6.261 0 2.683-.998 4.793-2.993 6.33-1.972 1.513-4.793 2.442-8.462 2.786v2.339Zm-11.352-11.455c0 1.628 1.468 2.614 4.403 2.958v-5.916c-2.935.367-4.403 1.353-4.403 2.958Zm15.755 0c0-1.605-1.468-2.591-4.403-2.958v5.916c2.935-.344 4.403-1.33 4.403-2.958Z" fill="#F4890B"/><path d="M159.234 121.236h6.949v7.223h5.298c2.591 0 4.609.757 6.054 2.271 1.468 1.49 2.201 3.348 2.201 5.572 0 2.248-.733 4.128-2.201 5.642-1.445 1.491-3.463 2.236-6.054 2.236h-12.247v-22.944Zm11.352 13.278h-4.403v3.612h4.403c.619 0 1.124-.149 1.514-.448.39-.321.585-.779.585-1.376 0-.573-.195-1.009-.585-1.307-.39-.321-.895-.481-1.514-.481ZM132.232 144.593v-6.123c1.055 0 1.915-.425 2.58-1.273.665-.872 1.124-2.339 1.376-4.403l1.411-11.558h17.922v22.944h-6.949v-16.89h-4.713l-.756 6.02c-.276 2.178-.746 4.036-1.411 5.572-.642 1.514-1.467 2.672-2.477 3.475-.986.802-2.041 1.376-3.164 1.72-1.124.344-2.397.516-3.819.516ZM114.276 144.18h-6.673v-22.944h6.948v12.246l7.981-12.246h7.155v22.944h-6.949v-13.003l-8.462 13.003Z" fill="#fff"/><path fill-rule="evenodd" clip-rule="evenodd" d="M93.66 121.236v2.407c3.692.344 6.524 1.285 8.497 2.821 1.972 1.514 2.958 3.601 2.958 6.261 0 2.683-.998 4.793-2.993 6.329-1.972 1.514-4.793 2.443-8.462 2.787v2.339h-3.474v-22.944h3.474Zm0 8.531c2.935.367 4.403 1.353 4.403 2.958 0 1.628-1.468 2.614-4.403 2.958v-5.916Z" fill="#fff"/><path d="M70.419 141.29c-2.385 2.202-5.366 3.303-8.944 3.303-3.577 0-6.57-1.101-8.978-3.303-2.385-2.224-3.578-5.079-3.578-8.565 0-3.486 1.193-6.33 3.578-8.531 2.408-2.225 5.4-3.337 8.978-3.337 3.578 0 6.559 1.112 8.944 3.337 2.408 2.201 3.612 5.045 3.612 8.531 0 3.486-1.204 6.341-3.612 8.565Zm-12.934-4.472c1.032 1.101 2.362 1.652 3.99 1.652 1.628 0 2.947-.551 3.956-1.652 1.032-1.1 1.548-2.465 1.548-4.093 0-1.628-.516-2.993-1.548-4.094-1.009-1.1-2.328-1.651-3.956-1.651-1.628 0-2.958.551-3.99 1.651-1.01 1.101-1.514 2.466-1.514 4.094 0 1.628.505 2.993 1.514 4.093ZM34.331 144.18h-6.949v-22.944H39.63c2.59 0 4.609.756 6.054 2.27 1.468 1.491 2.201 3.36 2.201 5.607 0 2.225-.733 4.094-2.201 5.607-1.445 1.491-3.463 2.236-6.054 2.236H34.33v7.224Zm4.403-13.278c.62 0 1.124-.149 1.514-.447.39-.321.585-.769.585-1.342 0-.596-.195-1.043-.585-1.341-.39-.322-.895-.482-1.514-.482h-4.403v3.612h4.403ZM23.668 144.18h-6.949v-16.89H8.497v16.89H1.55v-22.944h22.119v22.944Z" fill="#F4890B"/><path d="M142.559 175.252h-7.877l-.826-2.684h-8.255l-.826 2.684h-7.878l8.463-22.945h8.737l8.462 22.945Zm-10.56-8.738-2.271-7.396-2.27 7.396h4.541ZM115.645 175.252h-6.949v-13.795l-5.125 13.795h-3.096l-5.126-13.795v13.795H88.4v-22.945h9.598l4.025 11.008 4.024-11.008h9.598v22.945Z" fill="#F38707"/><path d="M142.559 175.252h-7.877l-.826-2.684h-8.255l-.826 2.684h-7.878l8.463-22.945h8.737l8.462 22.945Zm-10.56-8.738-2.271-7.396-2.27 7.396h4.541ZM115.645 175.252h-6.948v-13.795l-5.126 13.795h-3.096l-5.125-13.795v13.795H91v-22.945h6.998l4.025 11.008 4.025-11.008h9.597v22.945Z" fill="#fff"/><path d="M72.574 175.252h-6.948v-22.945h12.246c2.591 0 4.61.757 6.054 2.27 1.468 1.491 2.201 3.36 2.201 5.608 0 2.224-.733 4.093-2.201 5.607-1.445 1.49-3.463 2.236-6.054 2.236h-5.298v7.224Zm4.403-13.279c.62 0 1.124-.149 1.514-.447.39-.321.585-.768.585-1.341 0-.597-.195-1.044-.585-1.342-.39-.321-.894-.482-1.514-.482h-4.403v3.612h4.403ZM64.388 175.252H56.51l-.825-2.684h-8.256l-.826 2.684h-7.877l8.462-22.945h8.738l8.462 22.945Zm-10.56-8.738-2.271-7.396-2.27 7.396h4.54Z" fill="#F38707"/></symbol><symbol fill="none" viewBox="0 0 32 32" id="map-pin-orange" xmlns="http://www.w3.org/2000/svg"><path d="M14.599 17.466 21.065 11l-1.589-1.59L14.6 14.29l-2.067-2.067-1.589 1.589 3.656 3.655Zm1.4 8.934c2.874-2.622 5-5.002 6.377-7.14 1.378-2.136 2.067-4.023 2.067-5.66 0-2.556-.817-4.646-2.45-6.272-1.633-1.626-3.631-2.44-5.994-2.44s-4.361.814-5.995 2.44c-1.633 1.625-2.45 3.716-2.45 6.272 0 1.637.7 3.524 2.1 5.66 1.4 2.138 3.515 4.518 6.345 7.14Zm0 2.933c-3.578-3.044-6.25-5.872-8.017-8.483-1.767-2.611-2.65-5.028-2.65-7.25 0-3.333 1.072-5.989 3.217-7.967 2.144-1.978 4.628-2.966 7.45-2.966s5.305.988 7.45 2.966c2.144 1.978 3.216 4.634 3.216 7.967 0 2.222-.883 4.639-2.65 7.25-1.766 2.61-4.439 5.439-8.016 8.483Z" fill="#F48A0B"/></symbol><symbol fill="none" viewBox="0 0 24 24" id="pdf-file" xmlns="http://www.w3.org/2000/svg"><path d="M8 18h8v-2H8v2Zm0-4h8v-2H8v2Zm-2 8c-.55 0-1.02-.196-1.412-.587A1.926 1.926 0 0 1 4 20V4c0-.55.196-1.02.588-1.413A1.926 1.926 0 0 1 6 2h8l6 6v12c0 .55-.196 1.02-.587 1.413A1.926 1.926 0 0 1 18 22H6Zm7-13V4H6v16h12V9h-5Z" fill="#455A64"/></symbol><symbol fill="none" viewBox="0 0 40 40" id="pending-actions" xmlns="http://www.w3.org/2000/svg"><path d="M28.333 36.667c-2.305 0-4.27-.813-5.895-2.438C20.813 32.605 20 30.64 20 28.335c0-2.306.813-4.271 2.438-5.896C24.063 20.813 26.027 20 28.332 20c2.306 0 4.271.813 5.896 2.438 1.625 1.625 2.438 3.59 2.438 5.896 0 2.305-.813 4.27-2.438 5.896-1.625 1.625-3.59 2.437-5.896 2.437Zm2.792-4.375 1.167-1.167L29.167 28v-4.666H27.5v5.333l3.625 3.625ZM8.333 35a3.21 3.21 0 0 1-2.354-.979A3.21 3.21 0 0 1 5 31.667V8.334c0-.917.326-1.702.98-2.355A3.21 3.21 0 0 1 8.332 5h6.959c.305-.972.902-1.77 1.791-2.396.89-.625 1.861-.937 2.917-.937 1.111 0 2.104.312 2.98.937.874.625 1.464 1.424 1.77 2.396h6.917a3.21 3.21 0 0 1 2.354.98A3.21 3.21 0 0 1 35 8.333V18.75a9.024 9.024 0 0 0-1.583-.916 16.311 16.311 0 0 0-1.75-.667V8.334h-3.334v5H11.667v-5H8.333v23.333h8.834c.194.611.416 1.194.666 1.75.25.555.556 1.083.917 1.583H8.333ZM20 8.334c.472 0 .868-.16 1.188-.48.319-.319.479-.715.479-1.187 0-.472-.16-.868-.48-1.188C20.869 5.16 20.473 5 20 5c-.472 0-.868.16-1.188.48-.319.319-.479.715-.479 1.187 0 .472.16.868.48 1.187.319.32.715.48 1.187.48Z" fill="#F48A0B"/></symbol><symbol fill="none" viewBox="0 0 40 40" id="phone-icon" xmlns="http://www.w3.org/2000/svg"><path d="M20.445 20.305V6.39c0-.394.133-.723.399-.99.266-.266.596-.399.99-.399H33.61c.394 0 .723.133.99.4.266.266.399.595.399.989V14.5c0 .394-.133.723-.4.99-.266.266-.595.399-.989.399H25l-4.555 4.416Zm2.777-7.194h9V7.778h-9v5.333ZM33.167 35c-3.306 0-6.64-.77-10-2.313-3.361-1.541-6.459-3.729-9.292-6.562s-5.02-5.93-6.563-9.292C5.771 13.473 5 10.14 5 6.833c0-.524.175-.96.524-1.31.349-.348.785-.523 1.31-.523h6.138c.389 0 .727.137 1.014.41.287.273.477.609.57 1.007l1.109 5.434c.057.414.048.779-.026 1.094a1.662 1.662 0 0 1-.451.811l-4.118 4.16a28.926 28.926 0 0 0 2.187 3.271 27.747 27.747 0 0 0 2.618 2.924c.972.99 1.995 1.9 3.07 2.73a25.801 25.801 0 0 0 3.388 2.214l3.945-4.027c.268-.287.591-.489.97-.604.377-.116.748-.146 1.113-.09l5.222 1.11c.408.112.746.327 1.014.648.269.32.403.678.403 1.075v6c0 .524-.175.96-.524 1.31-.349.348-.785.523-1.31.523ZM9.708 15.333l3.167-3.194L12 7.778H7.792c.083 1.157.273 2.352.57 3.583.295 1.232.744 2.556 1.346 3.972ZM24.93 30.39c1.121.51 2.313.921 3.577 1.236 1.264.315 2.502.505 3.715.57V28l-4.167-.847-3.125 3.236Z" fill="#F48A0B"/></symbol><symbol fill="none" viewBox="0 0 40 40" id="phone-icon-gray" xmlns="http://www.w3.org/2000/svg"><path d="M20.445 20.305V6.39c0-.394.133-.723.399-.99.266-.266.596-.399.99-.399H33.61c.394 0 .723.133.99.4.266.266.399.595.399.989V14.5c0 .394-.133.723-.4.99-.266.266-.595.399-.989.399H25l-4.555 4.416Zm2.777-7.194h9V7.778h-9v5.333ZM33.167 35c-3.306 0-6.64-.77-10-2.313-3.361-1.541-6.459-3.729-9.292-6.562s-5.02-5.93-6.563-9.292C5.771 13.473 5 10.14 5 6.833c0-.524.175-.96.524-1.31.349-.348.785-.523 1.31-.523h6.138c.389 0 .727.137 1.014.41.287.273.477.609.57 1.007l1.109 5.434c.057.414.048.779-.026 1.094a1.662 1.662 0 0 1-.451.811l-4.118 4.16a28.926 28.926 0 0 0 2.187 3.271 27.747 27.747 0 0 0 2.618 2.924c.972.99 1.995 1.9 3.07 2.73a25.801 25.801 0 0 0 3.388 2.214l3.945-4.027c.268-.287.591-.489.97-.604.377-.116.748-.146 1.113-.09l5.222 1.11c.408.112.746.327 1.014.648.269.32.403.678.403 1.075v6c0 .524-.175.96-.524 1.31-.349.348-.785.523-1.31.523ZM9.708 15.333l3.167-3.194L12 7.778H7.792c.083 1.157.273 2.352.57 3.583.295 1.232.744 2.556 1.346 3.972ZM24.93 30.39c1.121.51 2.313.921 3.577 1.236 1.264.315 2.502.505 3.715.57V28l-4.167-.847-3.125 3.236Z" fill="#607D8B"/></symbol><symbol fill="none" viewBox="0 0 32 32" id="pin-shipments" xmlns="http://www.w3.org/2000/svg"><path d="M14.6 17.466 21.066 11l-1.589-1.59L14.6 14.29l-2.067-2.067-1.589 1.589 3.656 3.655ZM16 26.4c2.874-2.622 5-5.002 6.377-7.14 1.378-2.136 2.067-4.023 2.067-5.66 0-2.556-.817-4.646-2.45-6.272-1.633-1.626-3.631-2.44-5.994-2.44s-4.361.814-5.995 2.44c-1.633 1.625-2.45 3.716-2.45 6.272 0 1.637.7 3.524 2.1 5.66 1.4 2.138 3.515 4.518 6.345 7.14Zm0 2.933c-3.578-3.044-6.25-5.872-8.017-8.483-1.767-2.611-2.65-5.028-2.65-7.25 0-3.333 1.072-5.989 3.217-7.967 2.144-1.978 4.627-2.966 7.45-2.966 2.822 0 5.305.988 7.45 2.966 2.144 1.978 3.216 4.634 3.216 7.967 0 2.222-.883 4.639-2.65 7.25-1.766 2.61-4.438 5.439-8.016 8.483Z" fill="#F48A0B"/></symbol><symbol fill="none" viewBox="0 0 80 80" id="presentation" xmlns="http://www.w3.org/2000/svg"><g clip-path="url(#bha)" stroke="#F48A0B" stroke-width="3" stroke-miterlimit="10" stroke-linecap="round" stroke-linejoin="round"><path d="M77.578 78.828H2.422c-.69 0-1.25-.56-1.25-1.25v-2.677c0-.69.56-1.25 1.25-1.25h75.156c.69 0 1.25.56 1.25 1.25v2.677c0 .69-.56 1.25-1.25 1.25ZM76.328 55.531H3.672a2.5 2.5 0 0 1-2.5-2.5V8.85a2.5 2.5 0 0 1 2.5-2.5h72.656a2.5 2.5 0 0 1 2.5 2.5V53.03a2.5 2.5 0 0 1-2.5 2.5ZM47.766 6.349H32.234V2.422c0-.69.56-1.25 1.25-1.25h13.032c.69 0 1.25.56 1.25 1.25v3.927Z"/><path d="M27.057 73.651H21.88v-18.12h5.177v18.12ZM58.12 73.651h-5.177v-18.12h5.177v18.12ZM27.057 60.709h25.886v5.177H27.057v-5.177ZM21.88 68.474h5.177M52.943 68.474h5.177M24.469 30.94a2.588 2.588 0 1 1-5.177 0 2.588 2.588 0 0 1 5.177 0Z"/><path d="M37.411 32.432v-2.984c0-.633-.457-1.173-1.081-1.277l-1.88-.313a12.868 12.868 0 0 0-1.5-3.628l1.105-1.55c.368-.514.31-1.22-.138-1.667l-2.11-2.11a1.294 1.294 0 0 0-1.667-.138l-1.549 1.106a12.865 12.865 0 0 0-3.629-1.501l-.313-1.88a1.294 1.294 0 0 0-1.277-1.08h-2.984c-.633 0-1.173.457-1.277 1.08l-.313 1.88a12.866 12.866 0 0 0-3.629 1.501l-1.549-1.106a1.294 1.294 0 0 0-1.667.138l-2.11 2.11a1.294 1.294 0 0 0-.138 1.668l1.106 1.549a12.872 12.872 0 0 0-1.501 3.628l-1.88.314a1.294 1.294 0 0 0-1.08 1.276v2.985c0 .632.456 1.172 1.08 1.276l1.88.314a12.867 12.867 0 0 0 1.501 3.628l-1.106 1.55c-.368.514-.31 1.22.138 1.666l2.11 2.11a1.294 1.294 0 0 0 1.668.139l1.548-1.107a12.87 12.87 0 0 0 3.63 1.502l.312 1.88a1.294 1.294 0 0 0 1.277 1.08h2.984c.633 0 1.173-.457 1.277-1.08l.313-1.88a12.864 12.864 0 0 0 3.629-1.502l1.549 1.107c.515.367 1.22.31 1.667-.138l2.11-2.11a1.294 1.294 0 0 0 .139-1.668l-1.107-1.55a12.872 12.872 0 0 0 1.502-3.627l1.879-.314a1.295 1.295 0 0 0 1.081-1.277Z"/><path d="M30.94 30.94a9.06 9.06 0 1 1-18.12 0 9.06 9.06 0 0 1 18.12 0ZM56.87 19.292H46.427c-.69 0-1.25-.56-1.25-1.25v-2.677c0-.69.56-1.25 1.25-1.25H56.87c.69 0 1.25.56 1.25 1.25v2.677c0 .69-.56 1.25-1.25 1.25ZM72.401 50.355h-2.677c-.69 0-1.25-.56-1.25-1.25v-2.677c0-.69.56-1.25 1.25-1.25H72.4c.69 0 1.25.56 1.25 1.25v2.677c0 .69-.56 1.25-1.25 1.25ZM45.177 24.469h28.474M45.177 29.645h28.474M45.177 34.823h15.531"/></g><defs><clipPath id="bha"><path fill="#fff" d="M0 0h80v80H0z"/></clipPath></defs></symbol><symbol fill="none" viewBox="0 0 58 42" id="quote-decor" xmlns="http://www.w3.org/2000/svg"><path d="M31 0h27v26.272L42.644 42V26.272H31V0ZM0 0h27v26.272L11.644 42V26.272H0V0Z" fill="#CFD8DC"/></symbol><symbol fill="none" viewBox="0 0 23 23" id="saitcraft" xmlns="http://www.w3.org/2000/svg"><path fill-rule="evenodd" clip-rule="evenodd" d="M11.5 0A11.503 11.503 0 0 0 .157 13.388a11.5 11.5 0 0 0 15.07 8.993l-2.748-6.13-3.58 2.553L8.88 5.65l9.809 8.768-4.29.97 2.746 6.13A11.501 11.501 0 0 0 11.501 0Z" fill="#333"/></symbol><symbol fill="none" viewBox="0 0 80 80" id="thermostat" xmlns="http://www.w3.org/2000/svg"><g clip-path="url(#bka)" fill="#F48A0B"><path d="m56.068 43.173 2.683-8.416a4.667 4.667 0 0 0-5.067-6.045l.133-.427a4.666 4.666 0 0 0-5.866-5.867 4.691 4.691 0 0 0-2.812-3.2 4.445 4.445 0 0 0-2.342-.254l1.563-4.895a4.644 4.644 0 0 0-.075-2.988 6.645 6.645 0 0 0 1.419-2.472 34.4 34.4 0 0 1 17.143 8.656l-.883.883a1.334 1.334 0 1 0 1.885 1.885l.874-.873a34.694 34.694 0 0 1 9.25 22.173h-1.306a1.333 1.333 0 1 0 0 2.667h2.666c.737 0 1.334-.597 1.334-1.334C76.587 24.62 63.674 9.184 45.924 5.92a6.628 6.628 0 0 0-13.181 0C14.993 9.185 2.08 24.62 2 42.666 2 43.403 2.597 44 3.333 44H6a1.333 1.333 0 1 0 0-2.667H4.693a34.693 34.693 0 0 1 9.254-22.168l.873.873a1.333 1.333 0 0 0 1.885-1.885l-.882-.883a34.4 34.4 0 0 1 17.146-8.657 6.688 6.688 0 0 0 2.28 3.293l-3.633 11.396-1.907-.608a4.667 4.667 0 0 0-5.866 3.028L21.11 34.29a9.928 9.928 0 0 0 1.036 8.11c.507.843.83 1.783.948 2.76.055.424.071.852.049 1.28a4.624 4.624 0 0 0 3.25 4.586l15.165 4.841a5.21 5.21 0 0 0 5.798-1.893l.791-1.085a2.97 2.97 0 0 1 1.067-.85c3.101-1.597 6.02-6.254 6.853-8.865ZM39.333 2.666a3.973 3.973 0 0 1 3.298 6.218 4.645 4.645 0 0 0-1.011-.575 4.51 4.51 0 0 0-3.62.147 4.933 4.933 0 0 0-1.437 1.066 3.984 3.984 0 0 1 2.77-6.856ZM48 49.665a5.6 5.6 0 0 0-2 1.647l-.8 1.088a2.541 2.541 0 0 1-2.835.925L27.2 48.485a1.95 1.95 0 0 1-1.395-1.917c.029-.582.006-1.164-.066-1.742a9.638 9.638 0 0 0-1.312-3.804 7.253 7.253 0 0 1-.775-5.924l2.735-8.565a2 2 0 0 1 2.513-1.296l1.904.607L27.563 36a1.334 1.334 0 0 0 2.541.809l7.843-24.579a2.133 2.133 0 0 1 2.694-1.438 2.01 2.01 0 0 1 1.174 2.472l-6.634 20.8a1.334 1.334 0 0 0 2.542.809l3.75-11.761a2.133 2.133 0 0 1 2.684-1.407 2.01 2.01 0 0 1 1.174 2.476l-3.799 11.907a1.334 1.334 0 1 0 2.543.81 5341.57 5341.57 0 0 1 3.392-10.638 2 2 0 0 1 3.81 1.216l-1.364 4.28v.008l-2.026 6.35a1.333 1.333 0 1 0 2.541.81l1.972-6.187a2 2 0 1 1 3.808 1.215l-2.683 8.416C52.85 44.485 50.3 48.48 48 49.665ZM27.265 61.027a1.325 1.325 0 0 0-1.682-.846l-2.958.976 1.6-3.2a1.335 1.335 0 1 0-2.385-1.2l-2.792 5.577-3.715 1.232v-4.032l4.348-4.425a1.333 1.333 0 1 0-1.901-1.867l-2.447 2.49V52.57a1.333 1.333 0 1 0-2.666 0v3.164l-2.447-2.494a1.333 1.333 0 0 0-1.901 1.867l4.348 4.428v4.032l-3.719-1.228-2.792-5.577a1.335 1.335 0 1 0-2.385 1.2l1.6 3.2-2.958-.976a1.334 1.334 0 1 0-.834 2.533l2.994.99-3.148 1.625a1.333 1.333 0 1 0 1.23 2.366l5.466-2.832 3.75 1.239-2.334 3.27-6.07.98a1.333 1.333 0 1 0 .425 2.631l3.455-.556-1.844 2.592a1.334 1.334 0 1 0 2.172 1.55l1.802-2.534.544 3.492a1.333 1.333 0 0 0 2.635-.408l-.961-6.189L14 67.707l2.305 3.232-.961 6.19a1.333 1.333 0 1 0 2.635.408l.544-3.492 1.802 2.533a1.334 1.334 0 0 0 2.172-1.55l-1.849-2.591 3.455.556a1.333 1.333 0 1 0 .425-2.632l-6.059-.978-2.336-3.274 3.75-1.239 5.466 2.832a1.333 1.333 0 1 0 1.225-2.37l-3.151-1.634 2.994-.99a1.333 1.333 0 0 0 .848-1.68ZM64.667 58.666a6.667 6.667 0 1 0 6.666 6.667 6.675 6.675 0 0 0-6.666-6.667Zm0 10.667a4 4 0 1 1 0-8 4 4 0 0 1 0 8Z"/><path d="M75.333 60.866v-4.867c0-.736-.597-1.333-1.333-1.333h-4.867l-3.512-3.6a1.37 1.37 0 0 0-1.909 0l-3.512 3.6h-4.867c-.736 0-1.333.597-1.333 1.333v4.867l-3.6 3.512a1.333 1.333 0 0 0 0 1.91l3.6 3.511v4.867c0 .736.597 1.333 1.333 1.333H60.2l3.512 3.6a1.333 1.333 0 0 0 1.91 0l3.511-3.6H74c.736 0 1.333-.597 1.333-1.333v-4.867l3.6-3.512a1.333 1.333 0 0 0 0-1.91l-3.6-3.511Zm-2.266 7.417c-.257.252-.401.596-.4.955v4.094h-4.095c-.36 0-.703.144-.955.4l-2.95 3.025-2.951-3.025a1.334 1.334 0 0 0-.955-.4h-4.094v-4.094c0-.36-.144-.703-.4-.955l-3.024-2.95 3.024-2.951c.256-.252.4-.596.4-.955v-4.094h4.094c.36 0 .704-.144.955-.4l2.95-3.025 2.951 3.024c.252.257.596.401.955.4h4.095v4.095c-.001.36.143.703.4.955l3.024 2.95-3.024 2.951Z"/></g><defs><clipPath id="bka"><path fill="#fff" d="M0 0h80v80H0z"/></clipPath></defs></symbol><symbol fill="none" viewBox="0 0 24 24" id="vacancy" xmlns="http://www.w3.org/2000/svg"><path d="m18.5 16.25-5 3.75v-4.5h-8v-13h13v13.75Z" stroke="#455A64" stroke-width="3"/></symbol><symbol fill="none" viewBox="0 0 40 40" id="verified" xmlns="http://www.w3.org/2000/svg"><path d="m14.333 37.5-3.166-5.333-6-1.334.583-6.166L1.667 20l4.083-4.667-.583-6.166 6-1.334L14.333 2.5 20 4.917 25.667 2.5l3.166 5.333 6 1.334-.583 6.166L38.333 20l-4.083 4.667.583 6.166-6 1.334-3.166 5.333L20 35.083 14.333 37.5Zm1.417-4.25L20 31.417l4.333 1.833 2.334-4 4.583-1.083-.417-4.667 3.084-3.5-3.084-3.583.417-4.667-4.583-1-2.417-4L20 8.583 15.667 6.75l-2.334 4-4.583 1 .417 4.667L6.083 20l3.084 3.5-.417 4.75 4.583 1 2.417 4Zm2.5-7.333 9.417-9.417-2.334-2.417-7.083 7.084-3.583-3.5L12.333 20l5.917 5.917Z" fill="#F48A0B"/></symbol><symbol fill="none" viewBox="0 0 80 80" id="warranty" xmlns="http://www.w3.org/2000/svg"><path d="M25.313 13.438h52.812v45.437h-3.813M13.188 50.5V35.937M29.875 24.375h48.063" stroke="#F48A0B" stroke-width="3" stroke-miterlimit="10" stroke-linecap="round"/><path d="M57.625 18.25h.5v.5h-.5v-.5ZM64.5 18.25h.5v.5h-.5v-.5ZM71.313 18.25h.5v.5h-.5v-.5Z" stroke="#F48A0B" stroke-width="3" stroke-miterlimit="10" stroke-linecap="round"/><path d="m33.25 59.313 9.875 1.874 5.688.5C54.563 60.563 60.25 59.5 66 58.376c2.063-.5 4.063.75 4.625 2.688.5 1.937-.563 3.937-2.5 4.624-9.563 1.75-19.063 3.5-28.625 5.25-.813-.124-1.813-.312-2.813-.624-1.062-.313-2-.688-2.75-1.063l-13.624-4.625-11.875 3.938.312-12.5c6.563-2.063 13.063-4.126 19.625-6.188 6.625 1.75 13.25 3.438 19.938 5.188 2.187.437 3.562 2.25 3.437 3.937-.125 1.563-1.625 2.438-1.813 2.563" stroke="#F48A0B" stroke-width="3" stroke-miterlimit="10"/><path d="M31.688 33.125 33.563 35l3.562-3.563M31.688 42.875l1.875 1.875 3.562-3.563M44.063 33.188h18.5M44.063 43.563h18.5M27.875 24.313V19.75h-2.563c-.25-1.25-.75-2.438-1.437-3.5l1.813-1.813-3.25-3.187-1.813 1.813a10.116 10.116 0 0 0-3.5-1.438V9.062h-4.563v2.563c-1.25.25-2.437.75-3.5 1.438l-1.75-1.813-3.25 3.25 1.813 1.75a10.116 10.116 0 0 0-1.438 3.5H1.876v4.563h2.563c.25 1.25.75 2.437 1.437 3.5l-1.813 1.812 3.25 3.25 1.813-1.813a10.116 10.116 0 0 0 3.5 1.438V35h4.563v-2.5c1.25-.25 2.437-.75 3.5-1.438l1.812 1.813 3.25-3.25-1.813-1.813a10.116 10.116 0 0 0 1.438-3.5h2.5Z" stroke="#F48A0B" stroke-width="3" stroke-miterlimit="10" stroke-linecap="round"/><path d="M14.875 28.375a6.312 6.312 0 1 0 0-12.625 6.312 6.312 0 0 0 0 12.625Z" stroke="#F48A0B" stroke-width="3" stroke-miterlimit="10" stroke-linecap="round"/></symbol><symbol fill="none" viewBox="0 0 191 256" id="word-a" xmlns="http://www.w3.org/2000/svg"><path d="M46.898 0 0 255.229h32.242L73.278 29.337h43.967l23.753 140.815h-67.72l-5.862 29.337h78.531l9.402 55.74h35.174L143.625 0H46.898Z" fill="#F48A0B"/><path d="M190.527 255.229 143.629 0H95.266v29.337h21.983l23.754 140.815H95.266v29.337h50.685l9.403 55.74h35.173Z" fill="#16161C"/></symbol></svg>