<svg width="32" height="32" viewBox="0 0 32 32" fill="none" xmlns="http://www.w3.org/2000/svg">
<path d="M6.22233 10.8888H25.7777V7.11084H6.22233V10.8888ZM6.22233 29.3332C5.62233 29.3332 5.10189 29.1128 4.661 28.6722C4.22033 28.2313 4 27.7108 4 27.1108V7.11084C4 6.51084 4.22033 5.9905 4.661 5.54984C5.10189 5.10917 5.62233 4.88884 6.22233 4.88884H8.111V2.6665H10.4443V4.88884H21.5557V2.6665H23.889V4.88884H25.7777C26.3777 4.88884 26.8981 5.10917 27.339 5.54984C27.7797 5.9905 28 6.51084 28 7.11084V16.4555C27.6493 16.2808 27.2894 16.1353 26.9203 16.0188C26.5512 15.9024 26.1703 15.8108 25.7777 15.7442V13.1108H6.22233V27.1108H16.111C16.2519 27.5257 16.4168 27.9146 16.6057 28.2775C16.7946 28.6406 17.0186 28.9925 17.2777 29.3332H6.22233ZM24.2443 30.6665C22.4677 30.6665 20.9531 30.0404 19.7007 28.7882C18.4484 27.5357 17.8223 26.0211 17.8223 24.2442C17.8223 22.4675 18.4484 20.9529 19.7007 19.7005C20.9531 18.4483 22.4677 17.8222 24.2443 17.8222C26.0212 17.8222 27.5359 18.4483 28.7883 19.7005C30.0406 20.9529 30.6667 22.4675 30.6667 24.2442C30.6667 26.0211 30.0406 27.5357 28.7883 28.7882C27.5359 30.0404 26.0212 30.6665 24.2443 30.6665ZM26.2833 27.5442L27.211 26.6108L24.711 24.1108V20.3775H23.4V24.5998L26.2833 27.5442Z" fill="#F48A0B"/>
</svg>
