<svg width="32" height="32" viewBox="0 0 32 32" fill="none" xmlns="http://www.w3.org/2000/svg">
<path d="M6.22233 10.8895H25.7777V7.11151H6.22233V10.8895ZM6.22233 29.3338C5.62233 29.3338 5.10189 29.1135 4.661 28.6728C4.22033 28.232 4 27.7115 4 27.1115V7.11151C4 6.51151 4.22033 5.99118 4.661 5.55051C5.10189 5.10984 5.62233 4.88951 6.22233 4.88951H8.111V2.66718H10.4443V4.88951H21.5557V2.66718H23.889V4.88951H25.7777C26.3777 4.88951 26.8981 5.10984 27.339 5.55051C27.7797 5.99118 28 6.51151 28 7.11151V16.4562C27.6493 16.2815 27.2894 16.136 26.9203 16.0195C26.5512 15.9031 26.1703 15.8115 25.7777 15.7448V13.1115H6.22233V27.1115H16.111C16.2519 27.5264 16.4168 27.9153 16.6057 28.2782C16.7946 28.6413 17.0186 28.9932 17.2777 29.3338H6.22233ZM24.2443 30.6672C22.4677 30.6672 20.9531 30.0411 19.7007 28.7888C18.4484 27.5364 17.8223 26.0217 17.8223 24.2448C17.8223 22.4682 18.4484 20.9536 19.7007 19.7012C20.9531 18.449 22.4677 17.8228 24.2443 17.8228C26.0212 17.8228 27.5359 18.449 28.7883 19.7012C30.0406 20.9536 30.6667 22.4682 30.6667 24.2448C30.6667 26.0217 30.0406 27.5364 28.7883 28.7888C27.5359 30.0411 26.0212 30.6672 24.2443 30.6672ZM26.2833 27.5448L27.211 26.6115L24.711 24.1115V20.3782H23.4V24.6005L26.2833 27.5448Z" fill="#F48A0B"/>
</svg>
