<svg width="40" height="40" viewBox="0 0 40 40" fill="none" xmlns="http://www.w3.org/2000/svg">
<path d="M3.3335 10.0003V1.66699H11.6668V5.00033H6.66683V10.0003H3.3335ZM33.3335 10.0003V5.00033H28.3335V1.66699H36.6668V10.0003H33.3335ZM3.3335 38.3337V30.0003H6.66683V35.0003H11.6668V38.3337H3.3335ZM28.3335 38.3337V35.0003H33.3335V30.0003H36.6668V38.3337H28.3335ZM11.6668 30.0003H28.3335V10.0003H11.6668V30.0003ZM11.6668 33.3337C10.7502 33.3337 9.96544 33.0073 9.31266 32.3545C8.65988 31.7017 8.3335 30.917 8.3335 30.0003V10.0003C8.3335 9.08366 8.65988 8.29894 9.31266 7.64616C9.96544 6.99338 10.7502 6.66699 11.6668 6.66699H28.3335C29.2502 6.66699 30.0349 6.99338 30.6877 7.64616C31.3404 8.29894 31.6668 9.08366 31.6668 10.0003V30.0003C31.6668 30.917 31.3404 31.7017 30.6877 32.3545C30.0349 33.0073 29.2502 33.3337 28.3335 33.3337H11.6668ZM15.0002 16.667H25.0002V13.3337H15.0002V16.667ZM15.0002 21.667H25.0002V18.3337H15.0002V21.667ZM15.0002 26.667H25.0002V23.3337H15.0002V26.667Z" fill="#F48A0B"/>
</svg>
