<svg width="40" height="40" viewBox="0 0 40 40" fill="none" xmlns="http://www.w3.org/2000/svg">
<path d="M6.66665 33.3327C5.74998 33.3327 4.96526 33.0063 4.31248 32.3535C3.6597 31.7007 3.33331 30.916 3.33331 29.9993V9.99935C3.33331 9.08268 3.6597 8.29796 4.31248 7.64518C4.96526 6.9924 5.74998 6.66602 6.66665 6.66602H33.3333C34.25 6.66602 35.0347 6.9924 35.6875 7.64518C36.3403 8.29796 36.6666 9.08268 36.6666 9.99935V29.9993C36.6666 30.916 36.3403 31.7007 35.6875 32.3535C35.0347 33.0063 34.25 33.3327 33.3333 33.3327H6.66665ZM20 21.666L6.66665 13.3327V29.9993H33.3333V13.3327L20 21.666ZM20 18.3327L33.3333 9.99935H6.66665L20 18.3327ZM6.66665 13.3327V9.99935V29.9993V13.3327Z" fill="#F48A0B"/>
</svg>
