<svg width="40" height="40" viewBox="0 0 40 40" fill="none" xmlns="http://www.w3.org/2000/svg">
<g clip-path="url(#clip0_840_20436)">
<path d="M29.0582 17.3156V9.74577C29.0582 9.5291 28.9581 9.32891 28.8165 9.17052L20.3296 0.258484C20.1712 0.0918578 19.946 0 19.721 0H6.26525C3.78113 0 1.79688 2.02575 1.79688 4.51019V29.9542C1.79688 32.4386 3.78113 34.4311 6.26525 34.4311H16.8866C18.8955 37.7658 22.5473 39.9999 26.7071 39.9999C33.0264 39.9999 38.1869 34.8645 38.1869 28.5369C38.1954 23.0096 34.2269 18.3911 29.0582 17.3156ZM20.5548 2.92633L26.2487 8.92028H22.5555C21.455 8.92028 20.5548 8.01177 20.5548 6.91131V2.92633ZM6.26525 32.7636C4.70642 32.7636 3.46435 31.513 3.46435 29.9542V4.51019C3.46435 2.94281 4.70642 1.66748 6.26525 1.66748H18.8873V6.91131C18.8873 8.93706 20.5298 10.5878 22.5555 10.5878H27.3907V17.0987C27.1408 17.0904 26.9406 17.0654 26.7239 17.0654C23.8144 17.0654 21.1383 18.1827 19.1208 19.9334H8.53301C8.07433 19.9334 7.69927 20.3085 7.69927 20.7669C7.69927 21.2256 8.07433 21.6006 8.53301 21.6006H17.5702C16.9781 22.4344 16.4862 23.2681 16.1029 24.1851H8.53301C8.07433 24.1851 7.69927 24.5602 7.69927 25.0189C7.69927 25.4773 8.07433 25.8526 8.53301 25.8526H15.5609C15.3525 26.6864 15.2441 27.6117 15.2441 28.5369C15.2441 30.0375 15.5359 31.5216 16.0611 32.7722H6.26525V32.7636ZM26.7157 38.341C21.3134 38.341 16.9198 33.9474 16.9198 28.5452C16.9198 23.143 21.3049 18.7494 26.7157 18.7494C32.1261 18.7494 36.5112 23.143 36.5112 28.5452C36.5112 33.9474 32.1179 38.341 26.7157 38.341Z" fill="#455A64"/>
<path d="M8.53296 17.424H16.9781C17.4368 17.424 17.8118 17.0486 17.8118 16.5903C17.8118 16.1316 17.4368 15.7565 16.9781 15.7565H8.53296C8.07428 15.7565 7.69922 16.1316 7.69922 16.5903C7.69922 17.0486 8.07428 17.424 8.53296 17.424Z" fill="#455A64"/>
<path d="M30.9836 28.37L27.5574 32.0633V22.9596C27.5574 22.5009 27.1821 22.1259 26.7237 22.1259C26.265 22.1259 25.8899 22.5009 25.8899 22.9596V32.0633L22.4384 28.37C22.1216 28.0368 21.5882 28.0118 21.2546 28.3285C20.9211 28.6453 20.8961 29.1705 21.2131 29.5041L26.0901 34.7479C26.2485 34.9145 26.4652 35.0146 26.6987 35.0146C26.9321 35.0146 27.1488 34.9145 27.3072 34.7479L32.1927 29.5041C32.5095 29.1705 32.4927 28.6371 32.1592 28.3285C31.8174 28.0118 31.3007 28.0368 30.9836 28.37Z" fill="#455A64"/>
</g>
<defs>
<clipPath id="clip0_840_20436">
<rect width="40" height="40" fill="white"/>
</clipPath>
</defs>
</svg>
