<svg width="507" height="154" viewBox="0 0 507 154" fill="none" xmlns="http://www.w3.org/2000/svg">
<path d="M440.883 1.05664H460.311V21.2541H475.123C482.368 21.2541 488.01 23.37 492.05 27.6018C496.154 31.7696 498.205 36.9632 498.205 43.1827C498.205 49.4664 496.154 54.7241 492.05 58.956C488.01 63.1237 482.368 65.2075 475.123 65.2075H440.883V1.05664ZM472.622 38.1814H460.311V48.2802H472.622C474.353 48.2802 475.764 47.8634 476.854 47.0299C477.944 46.1322 478.489 44.8498 478.489 43.1827C478.489 41.5798 477.944 40.3615 476.854 39.5279C475.764 38.6303 474.353 38.1814 472.622 38.1814Z" fill="#16161C"/>
<path d="M365.379 66.3617V49.2419C368.328 49.2419 370.733 48.0557 372.592 45.6833C374.452 43.2468 375.734 39.1432 376.439 33.3725L380.383 1.05664H430.492V65.2075H411.064V17.984H397.887L395.771 34.8152C395.002 40.9065 393.687 46.1001 391.828 50.3961C390.033 54.6279 387.724 57.8659 384.903 60.1101C382.146 62.3542 379.197 63.9572 376.055 64.919C372.913 65.8808 369.354 66.3617 365.379 66.3617Z" fill="#16161C"/>
<path d="M315.175 65.2075H296.516V1.05664H315.944V35.2961L338.258 1.05664H358.263V65.2075H338.835V28.8522L315.175 65.2075Z" fill="#16161C"/>
<path d="M257.536 65.2075H238.108V58.6674C227.785 57.7056 219.866 55.1088 214.352 50.877C208.838 46.581 206.081 40.6821 206.081 33.1802C206.081 25.6783 208.838 19.8114 214.352 15.5796C219.866 11.3477 227.785 8.7509 238.108 7.78912V1.05664H257.536V7.78912C267.859 8.7509 275.778 11.3798 281.292 15.6757C286.806 19.9076 289.564 25.7424 289.564 33.1802C289.564 40.6821 286.774 46.581 281.196 50.877C275.682 55.1088 267.795 57.7056 257.536 58.6674V65.2075ZM225.797 33.1802C225.797 37.7326 229.901 40.4897 238.108 41.4515V24.9088C229.901 25.9348 225.797 28.6919 225.797 33.1802ZM269.847 33.1802C269.847 28.6919 265.743 25.9348 257.536 24.9088V41.4515C265.743 40.4897 269.847 37.7326 269.847 33.1802Z" fill="#16161C"/>
<path d="M192.559 57.1299C185.891 63.2853 177.555 66.363 167.553 66.363C157.55 66.363 149.183 63.2853 142.45 57.1299C135.782 50.9104 132.448 42.9276 132.448 33.1815C132.448 23.4354 135.782 15.4847 142.45 9.32929C149.183 3.10976 157.55 0 167.553 0C177.555 0 185.891 3.10976 192.559 9.32929C199.292 15.4847 202.658 23.4354 202.658 33.1815C202.658 42.9276 199.292 50.9104 192.559 57.1299ZM156.396 44.6267C159.281 47.7044 163 49.2433 167.553 49.2433C172.105 49.2433 175.792 47.7044 178.613 44.6267C181.499 41.549 182.941 37.7339 182.941 33.1815C182.941 28.6291 181.499 24.814 178.613 21.7363C175.792 18.6586 172.105 17.1197 167.553 17.1197C163 17.1197 159.281 18.6586 156.396 21.7363C153.575 24.814 152.164 28.6291 152.164 33.1815C152.164 37.7339 153.575 41.549 156.396 44.6267Z" fill="#16161C"/>
<path d="M91.6535 65.2075H72.2255V1.05664H106.465C113.71 1.05664 119.353 3.17256 123.392 7.40441C127.496 11.5721 129.548 16.7978 129.548 23.0815C129.548 29.301 127.496 34.5267 123.392 38.7585C119.353 42.9262 113.71 45.0101 106.465 45.0101H91.6535V65.2075ZM103.964 28.0827C105.696 28.0827 107.106 27.666 108.196 26.8324C109.286 25.9348 109.831 24.6844 109.831 23.0815C109.831 21.4144 109.286 20.1641 108.196 19.3305C107.106 18.4328 105.696 17.984 103.964 17.984H91.6535V28.0827H103.964Z" fill="#16161C"/>
<path d="M61.8426 65.2075H42.4146V17.984H19.428V65.2075H0V1.05664H61.8426V65.2075Z" fill="#16161C"/>
<path d="M290.312 153.554H268.287L265.979 146.052H242.896L240.588 153.554H218.563L242.223 89.4033H266.652L290.312 153.554ZM260.785 129.125L254.437 108.447L248.09 129.125H260.785Z" fill="#F48A0B"/>
<path d="M215.063 153.554H195.635V114.987L181.304 153.554H172.648L158.318 114.987V153.554H138.89V89.4033H165.723L176.976 120.18L188.229 89.4033H215.063V153.554Z" fill="#F48A0B"/>
<path d="M94.6352 153.554H75.2072V89.4033H109.447C116.692 89.4033 122.335 91.5192 126.374 95.7511C130.478 99.9188 132.529 105.145 132.529 111.428C132.529 117.648 130.478 122.873 126.374 127.105C122.335 131.273 116.692 133.357 109.447 133.357H94.6352V153.554ZM106.946 116.429C108.677 116.429 110.088 116.013 111.178 115.179C112.268 114.281 112.813 113.031 112.813 111.428C112.813 109.761 112.268 108.511 111.178 107.677C110.088 106.78 108.677 106.331 106.946 106.331H94.6352V116.429H106.946Z" fill="#F48A0B"/>
<path d="M71.749 153.554H49.7242L47.4159 146.052H24.3331L22.0248 153.554H0L23.6599 89.4033H48.0891L71.749 153.554ZM42.2223 129.125L35.8745 108.447L29.5267 129.125H42.2223Z" fill="#F48A0B"/>
</svg>
