<svg width="182" height="176" viewBox="0 0 182 176" fill="none" xmlns="http://www.w3.org/2000/svg">
<path d="M73.3449 0L56.5713 91.2857H68.1032L82.7801 10.4926H98.5054L107.001 60.8571H82.7801L80.6834 71.3498H108.771L112.134 91.2857H124.714L107.941 0H73.3449Z" fill="#F4890B"/>
<path d="M124.714 91.2857L107.94 0H90.6426V10.4926H98.5052L107.001 60.8571H90.6426V71.3498H108.771L112.134 91.2857H124.714Z" fill="white"/>
<path d="M159.235 121.236H166.184V128.46H171.481C174.072 128.46 176.091 129.216 177.535 130.73C179.003 132.221 179.737 134.078 179.737 136.303C179.737 138.55 179.003 140.431 177.535 141.944C176.091 143.435 174.072 144.18 171.481 144.18H159.235V121.236ZM170.587 134.514H166.184V138.126H170.587C171.206 138.126 171.71 137.977 172.1 137.679C172.49 137.357 172.685 136.899 172.685 136.303C172.685 135.729 172.49 135.294 172.1 134.995C171.71 134.674 171.206 134.514 170.587 134.514Z" fill="#F4890B"/>
<path d="M132.232 144.593V138.47C133.287 138.47 134.147 138.045 134.812 137.197C135.477 136.326 135.936 134.858 136.188 132.794L137.598 121.236H155.52V144.18H148.572V127.29H143.859L143.102 133.31C142.827 135.488 142.357 137.346 141.692 138.883C141.05 140.396 140.224 141.554 139.215 142.357C138.229 143.16 137.174 143.733 136.05 144.077C134.927 144.421 133.654 144.593 132.232 144.593Z" fill="#F4890B"/>
<path d="M114.276 144.18H107.603V121.236H114.551V133.482L122.532 121.236H129.687V144.18H122.738V131.177L114.276 144.18Z" fill="#F4890B"/>
<path d="M93.66 144.18H86.7113V141.841C83.0191 141.497 80.1869 140.568 78.2147 139.055C76.2425 137.518 75.2563 135.408 75.2563 132.725C75.2563 130.042 76.2425 127.944 78.2147 126.43C80.1869 124.916 83.0191 123.988 86.7113 123.644V121.236H93.66V123.644C97.3522 123.988 100.184 124.928 102.157 126.464C104.129 127.978 105.115 130.065 105.115 132.725C105.115 135.408 104.117 137.518 102.122 139.055C100.15 140.568 97.3293 141.497 93.66 141.841V144.18ZM82.3082 132.725C82.3082 134.353 83.7759 135.339 86.7113 135.683V129.767C83.7759 130.134 82.3082 131.12 82.3082 132.725ZM98.0631 132.725C98.0631 131.12 96.5954 130.134 93.66 129.767V135.683C96.5954 135.339 98.0631 134.353 98.0631 132.725Z" fill="#F4890B"/>
<path d="M159.234 121.236H166.183V128.459H171.481C174.072 128.459 176.09 129.216 177.535 130.73C179.003 132.22 179.736 134.078 179.736 136.302C179.736 138.55 179.003 140.43 177.535 141.944C176.09 143.435 174.072 144.18 171.481 144.18H159.234V121.236ZM170.586 134.514H166.183V138.126H170.586C171.205 138.126 171.71 137.977 172.1 137.678C172.49 137.357 172.685 136.899 172.685 136.302C172.685 135.729 172.49 135.293 172.1 134.995C171.71 134.674 171.205 134.514 170.586 134.514Z" fill="white"/>
<path d="M132.232 144.593V138.47C133.287 138.47 134.147 138.045 134.812 137.197C135.477 136.325 135.936 134.858 136.188 132.794L137.599 121.236H155.521V144.18H148.572V127.29H143.859L143.103 133.31C142.827 135.488 142.357 137.346 141.692 138.882C141.05 140.396 140.225 141.554 139.215 142.357C138.229 143.159 137.174 143.733 136.051 144.077C134.927 144.421 133.654 144.593 132.232 144.593Z" fill="white"/>
<path d="M114.276 144.18H107.603V121.236H114.551V133.482L122.532 121.236H129.687V144.18H122.738V131.177L114.276 144.18Z" fill="white"/>
<path fill-rule="evenodd" clip-rule="evenodd" d="M93.6599 121.236V123.643C97.3521 123.987 100.184 124.928 102.157 126.464C104.129 127.978 105.115 130.065 105.115 132.725C105.115 135.408 104.117 137.518 102.122 139.054C100.15 140.568 97.3291 141.497 93.6599 141.841V144.18H90.1855V121.236H93.6599ZM93.6599 129.767C96.5953 130.134 98.063 131.12 98.063 132.725C98.063 134.353 96.5953 135.339 93.6599 135.683V129.767Z" fill="white"/>
<path d="M70.419 141.29C68.034 143.492 65.0527 144.593 61.4752 144.593C57.8977 144.593 54.9049 143.492 52.497 141.29C50.1119 139.066 48.9194 136.211 48.9194 132.725C48.9194 129.239 50.1119 126.395 52.497 124.194C54.9049 121.969 57.8977 120.857 61.4752 120.857C65.0527 120.857 68.034 121.969 70.419 124.194C72.827 126.395 74.031 129.239 74.031 132.725C74.031 136.211 72.827 139.066 70.419 141.29ZM57.4849 136.818C58.5169 137.919 59.847 138.47 61.4752 138.47C63.1034 138.47 64.4221 137.919 65.4311 136.818C66.4631 135.718 66.9791 134.353 66.9791 132.725C66.9791 131.097 66.4631 129.732 65.4311 128.631C64.4221 127.531 63.1034 126.98 61.4752 126.98C59.847 126.98 58.5169 127.531 57.4849 128.631C56.4758 129.732 55.9713 131.097 55.9713 132.725C55.9713 134.353 56.4758 135.718 57.4849 136.818Z" fill="#F4890B"/>
<path d="M34.331 144.18H27.3823V121.236H39.6285C42.2199 121.236 44.238 121.992 45.6828 123.506C47.1505 124.997 47.8843 126.866 47.8843 129.113C47.8843 131.338 47.1505 133.207 45.6828 134.72C44.238 136.211 42.2199 136.956 39.6285 136.956H34.331V144.18ZM38.7341 130.902C39.3533 130.902 39.8578 130.753 40.2477 130.455C40.6375 130.134 40.8325 129.686 40.8325 129.113C40.8325 128.517 40.6375 128.07 40.2477 127.772C39.8578 127.45 39.3533 127.29 38.7341 127.29H34.331V130.902H38.7341Z" fill="#F4890B"/>
<path d="M23.6676 144.18H16.719V127.29H8.4975V144.18H1.54883V121.236H23.6676V144.18Z" fill="#F4890B"/>
<path d="M142.559 175.252H134.682L133.856 172.568H125.601L124.775 175.252H116.897L125.36 152.307H134.097L142.559 175.252ZM131.999 166.514L129.728 159.118L127.458 166.514H131.999Z" fill="#F38707"/>
<path d="M115.645 175.252H108.696V161.457L103.571 175.252H100.475L95.3491 161.457V175.252H88.4004V152.307H97.9978L102.023 163.315L106.047 152.307H115.645V175.252Z" fill="#F38707"/>
<path d="M142.559 175.252H134.682L133.856 172.568H125.601L124.775 175.252H116.897L125.36 152.307H134.097L142.559 175.252ZM131.999 166.514L129.728 159.118L127.458 166.514H131.999Z" fill="white"/>
<path d="M115.645 175.252H108.697V161.457L103.571 175.252H100.475L95.3495 161.457V175.252H91V152.307H97.9983L102.023 163.315L106.048 152.307H115.645V175.252Z" fill="white"/>
<path d="M72.5742 175.252H65.6255V152.307H77.8717C80.4631 152.307 82.4812 153.064 83.926 154.577C85.3937 156.068 86.1275 157.937 86.1275 160.185C86.1275 162.409 85.3937 164.278 83.926 165.792C82.4812 167.282 80.4631 168.028 77.8717 168.028H72.5742V175.252ZM76.9773 161.973C77.5965 161.973 78.101 161.824 78.4909 161.526C78.8807 161.205 79.0756 160.758 79.0756 160.185C79.0756 159.588 78.8807 159.141 78.4909 158.843C78.101 158.522 77.5965 158.361 76.9773 158.361H72.5742V161.973H76.9773Z" fill="#F38707"/>
<path d="M64.388 175.252H56.5105L55.685 172.568H47.4291L46.6035 175.252H38.7261L47.1883 152.307H55.9258L64.388 175.252ZM53.8274 166.514L51.557 159.118L49.2867 166.514H53.8274Z" fill="#F38707"/>
</svg>
