<svg width="137" height="91" viewBox="0 0 137 91" fill="none" xmlns="http://www.w3.org/2000/svg">
<path d="M70.0047 65.92H75.2011V37.6324H70.0047V65.92ZM63.7713 65.92H68.9666V31.3457H63.7713V65.92ZM57.5391 65.92H62.7332V37.6324H57.5391V65.92Z" fill="#D9BB6C"/>
<path d="M87.6624 34.4851L82.4719 39.7236V21.8974H87.6672M81.4326 40.7694L76.2373 46.0115V15.6047H81.4326M70.0039 36.5827H75.2016V9.33364H70.0039V36.5827ZM63.7705 30.296H68.9646V3.05176H63.7705V30.296ZM57.5383 36.5827H62.7312V9.33364H57.5383V36.5827ZM56.4978 46.0103L51.3025 40.7694V15.6047H56.4978M45.0703 21.8974V34.4839L50.2632 39.7248V21.8974" fill="black"/>
<path d="M16.1625 72.374C18.7625 72.374 20.8874 74.4836 20.8874 77.0615V78.0677C20.8874 80.2611 19.3493 82.1131 17.2932 82.6186L21.5704 87.9482H15.394L11.2261 82.7564H8.70212V87.9482H2.52573V72.3752C2.45808 72.3752 9.79011 72.374 16.1625 72.374ZM8.70212 79.1221H13.9497C14.7288 79.1221 15.3679 78.4896 15.3679 77.7158V77.4151C15.3679 76.64 14.73 76.0087 13.9497 76.0087H8.70212M46.8199 87.9472H55.5702C58.2605 87.9472 60.4614 85.7286 60.4614 83.0166C60.4614 80.3021 58.2605 78.0847 55.5702 78.0847H49.4544C48.9971 78.0847 48.6217 77.7074 48.6217 77.2474V76.8449C48.6217 76.3849 48.9959 76.0087 49.4544 76.0087H53.4524C53.9097 76.0087 54.2838 76.3849 54.2838 76.8449V77.0449H60.4543C60.3177 74.4527 58.1738 72.3743 55.5702 72.3743H46.8199C44.132 72.3743 41.9299 74.5928 41.9299 77.3061C41.9299 80.0182 44.132 82.2367 46.8199 82.2367H52.9381C53.3954 82.2367 53.7707 82.6141 53.7707 83.0753V83.4766C53.7707 83.9366 53.3942 84.3151 52.9381 84.3151H48.9389C48.4816 84.3151 48.1074 83.9366 48.1074 83.4766V83.2765H41.937C42.0724 85.8664 44.2175 87.9472 46.8199 87.9472ZM74.8737 87.9472H81.0489V72.3743H74.8737V81.3503L67.6664 72.3743H61.4912V87.9472H67.6664V78.9724M100.033 87.9472H106.211V82.2367H115.466V78.0847L106.211 78.0584V76.5274H116.624V72.3743H100.033M21.5739 80.1392C21.5739 85.2399 24.8795 87.9472 31.4086 87.9472C37.939 87.9472 41.2445 85.2399 41.2445 80.1392C41.2445 75.0372 37.939 72.3743 31.4086 72.3743C24.8795 72.3743 21.5739 75.0372 21.5739 80.1392ZM31.4086 76.0075C33.416 76.0075 35.0563 77.4151 35.0563 79.1401V81.1813C35.0563 82.9052 33.416 84.3163 31.4086 84.3163C29.4037 84.3163 27.7622 82.9052 27.7622 81.1813V79.1401C27.7622 77.4151 29.4037 76.0075 31.4086 76.0075ZM82.2521 87.9472H99.3477V83.7952H88.4273V82.2367H97.6812V78.0847L88.4273 78.0584V76.5274H98.8405V72.3743H82.2521M122.881 87.9472H129.06V76.5274H134.475V72.3755H117.31V76.5274H122.881" fill="black"/>
</svg>
