<svg width="32" height="32" viewBox="0 0 32 32" fill="none" xmlns="http://www.w3.org/2000/svg">
<path d="M14.5987 17.4665L21.0654 10.9998L19.4764 9.41084L14.5987 14.2888L12.532 12.2222L10.943 13.8108L14.5987 17.4665ZM15.9987 26.3998C18.8727 23.7776 20.9986 21.3979 22.3764 19.2608C23.7541 17.1239 24.443 15.2369 24.443 13.5998C24.443 11.0443 23.6264 8.9535 21.993 7.3275C20.3597 5.70173 18.3616 4.88884 15.9987 4.88884C13.6358 4.88884 11.6377 5.70173 10.0044 7.3275C8.37103 8.9535 7.55436 11.0443 7.55436 13.5998C7.55436 15.2369 8.25437 17.1239 9.65437 19.2608C11.0544 21.3979 13.1691 23.7776 15.9987 26.3998ZM15.9987 29.3332C12.4209 26.2887 9.7487 23.4609 7.98203 20.8498C6.21536 18.2387 5.33203 15.8221 5.33203 13.5998C5.33203 10.2665 6.40425 7.61095 8.5487 5.63317C10.6931 3.65539 13.1765 2.6665 15.9987 2.6665C18.8209 2.6665 21.3043 3.65539 23.4487 5.63317C25.5931 7.61095 26.6654 10.2665 26.6654 13.5998C26.6654 15.8221 25.782 18.2387 24.0154 20.8498C22.2487 23.4609 19.5765 26.2887 15.9987 29.3332Z" fill="#F48A0B"/>
</svg>
