<svg width="40" height="40" viewBox="0 0 40 40" fill="none" xmlns="http://www.w3.org/2000/svg">
<path d="M28.3333 36.667C26.0278 36.667 24.0625 35.8545 22.4375 34.2295C20.8125 32.6045 20 30.6392 20 28.3337C20 26.0281 20.8125 24.0628 22.4375 22.4378C24.0625 20.8128 26.0278 20.0003 28.3333 20.0003C30.6389 20.0003 32.6042 20.8128 34.2292 22.4378C35.8542 24.0628 36.6667 26.0281 36.6667 28.3337C36.6667 30.6392 35.8542 32.6045 34.2292 34.2295C32.6042 35.8545 30.6389 36.667 28.3333 36.667ZM31.125 32.292L32.2917 31.1253L29.1667 28.0003V23.3337H27.5V28.667L31.125 32.292ZM8.33333 35.0003C7.41667 35.0003 6.63194 34.6739 5.97917 34.0212C5.32639 33.3684 5 32.5837 5 31.667V8.33366C5 7.41699 5.32639 6.63227 5.97917 5.97949C6.63194 5.32671 7.41667 5.00033 8.33333 5.00033H15.2917C15.5972 4.0281 16.1944 3.22949 17.0833 2.60449C17.9722 1.97949 18.9444 1.66699 20 1.66699C21.1111 1.66699 22.1042 1.97949 22.9792 2.60449C23.8542 3.22949 24.4444 4.0281 24.75 5.00033H31.6667C32.5833 5.00033 33.3681 5.32671 34.0208 5.97949C34.6736 6.63227 35 7.41699 35 8.33366V18.7503C34.5 18.3892 33.9722 18.0837 33.4167 17.8337C32.8611 17.5837 32.2778 17.3614 31.6667 17.167V8.33366H28.3333V13.3337H11.6667V8.33366H8.33333V31.667H17.1667C17.3611 32.2781 17.5833 32.8614 17.8333 33.417C18.0833 33.9725 18.3889 34.5003 18.75 35.0003H8.33333ZM20 8.33366C20.4722 8.33366 20.8681 8.17394 21.1875 7.85449C21.5069 7.53505 21.6667 7.13921 21.6667 6.66699C21.6667 6.19477 21.5069 5.79894 21.1875 5.47949C20.8681 5.16005 20.4722 5.00033 20 5.00033C19.5278 5.00033 19.1319 5.16005 18.8125 5.47949C18.4931 5.79894 18.3333 6.19477 18.3333 6.66699C18.3333 7.13921 18.4931 7.53505 18.8125 7.85449C19.1319 8.17394 19.5278 8.33366 20 8.33366Z" fill="#F48A0B"/>
</svg>
