<svg width="80" height="80" viewBox="0 0 80 80" fill="none" xmlns="http://www.w3.org/2000/svg">
<g clip-path="url(#clip0_840_19281)">
<path d="M77.5781 78.8281H2.42187C1.73156 78.8281 1.17188 78.2684 1.17188 77.5781V74.9011C1.17188 74.2106 1.73156 73.6511 2.42187 73.6511H77.5781C78.2684 73.6511 78.8281 74.2106 78.8281 74.9011V77.5781C78.8281 78.2684 78.2684 78.8281 77.5781 78.8281Z" stroke="#F48A0B" stroke-width="3" stroke-miterlimit="10" stroke-linecap="round" stroke-linejoin="round"/>
<path d="M76.3281 55.5312H3.67187C2.29125 55.5312 1.17188 54.412 1.17188 53.0312V8.84891C1.17188 7.46828 2.29125 6.34891 3.67187 6.34891H76.3281C77.7089 6.34891 78.8281 7.46828 78.8281 8.84891V53.0312C78.8281 54.412 77.7089 55.5312 76.3281 55.5312Z" stroke="#F48A0B" stroke-width="3" stroke-miterlimit="10" stroke-linecap="round" stroke-linejoin="round"/>
<path d="M47.7656 6.34863H32.2344V2.4216C32.2344 1.73113 32.7941 1.1716 33.4844 1.1716H46.5156C47.2059 1.1716 47.7656 1.73113 47.7656 2.4216V6.34863Z" stroke="#F48A0B" stroke-width="3" stroke-miterlimit="10" stroke-linecap="round" stroke-linejoin="round"/>
<path d="M27.0573 73.6514H21.8803V55.5315H27.0573V73.6514Z" stroke="#F48A0B" stroke-width="3" stroke-miterlimit="10" stroke-linecap="round" stroke-linejoin="round"/>
<path d="M58.1198 73.6514H52.9426V55.5315H58.1198V73.6514Z" stroke="#F48A0B" stroke-width="3" stroke-miterlimit="10" stroke-linecap="round" stroke-linejoin="round"/>
<path d="M27.0574 60.7087H52.9428V65.8857H27.0574V60.7087Z" stroke="#F48A0B" stroke-width="3" stroke-miterlimit="10" stroke-linecap="round" stroke-linejoin="round"/>
<path d="M21.8802 68.4736H27.0572" stroke="#F48A0B" stroke-width="3" stroke-miterlimit="10" stroke-linecap="round" stroke-linejoin="round"/>
<path d="M52.9426 68.4736H58.1198" stroke="#F48A0B" stroke-width="3" stroke-miterlimit="10" stroke-linecap="round" stroke-linejoin="round"/>
<path d="M24.4687 30.9399C24.4687 32.3694 23.3098 33.5283 21.8802 33.5283C20.4505 33.5283 19.2916 32.3694 19.2916 30.9399C19.2916 29.5102 20.4505 28.3513 21.8802 28.3513C23.3098 28.3513 24.4687 29.5102 24.4687 30.9399Z" stroke="#F48A0B" stroke-width="3" stroke-miterlimit="10" stroke-linecap="round" stroke-linejoin="round"/>
<path d="M37.4114 32.4325V29.4481C37.4114 28.8154 36.9539 28.2754 36.3298 28.1714L34.4505 27.8582C34.1334 26.5614 33.6241 25.3401 32.9492 24.2295L34.0555 22.6807C34.4231 22.1659 34.3648 21.4606 33.9175 21.0132L31.8072 18.9029C31.3598 18.4556 30.6545 18.3971 30.1397 18.765L28.5911 19.8712C27.4803 19.1964 26.2591 18.6868 24.9622 18.37L24.6489 16.4907C24.5448 15.8667 24.005 15.4092 23.3722 15.4092H20.388C19.7552 15.4092 19.2152 15.8667 19.1112 16.4907L18.7981 18.37C17.5011 18.6868 16.2798 19.1965 15.1691 19.8712L13.6205 18.7651C13.1056 18.3973 12.4005 18.4557 11.953 18.9031L9.84281 21.0134C9.39531 21.4607 9.33703 22.1661 9.70484 22.6809L10.8109 24.2295C10.1362 25.3401 9.62672 26.5615 9.30968 27.8584L7.43046 28.1717C6.8064 28.2756 6.34906 28.8156 6.34906 29.4482V32.4326C6.34906 33.0654 6.8064 33.6053 7.43046 33.7093L9.30984 34.0226C9.62687 35.3195 10.1364 36.5406 10.8112 37.6512L9.705 39.2001C9.33718 39.715 9.39546 40.4201 9.84296 40.8675L11.9531 42.9778C12.4006 43.4253 13.1058 43.4836 13.6206 43.1159L15.1695 42.0093C16.2802 42.684 17.5014 43.1937 18.7981 43.5106L19.1114 45.3901C19.2155 46.0142 19.7553 46.4717 20.3881 46.4717H23.3725C24.0052 46.4717 24.5452 46.0142 24.6492 45.3901L24.9623 43.5104C26.2591 43.1936 27.4803 42.684 28.5909 42.0093L30.1398 43.1157C30.6547 43.4834 31.36 43.4251 31.8073 42.9776L33.9177 40.8673C34.365 40.42 34.4233 39.7146 34.0556 39.2L32.9492 37.6509C33.6239 36.5404 34.1334 35.3192 34.4505 34.0225L36.33 33.7092C36.9539 33.6051 37.4114 33.0651 37.4114 32.4325Z" stroke="#F48A0B" stroke-width="3" stroke-miterlimit="10" stroke-linecap="round" stroke-linejoin="round"/>
<path d="M30.94 30.9402C30.94 35.9437 26.8838 40 21.8802 40C16.8766 40 12.8203 35.9437 12.8203 30.9402C12.8203 25.9366 16.8766 21.8803 21.8802 21.8803C26.8838 21.8803 30.94 25.9366 30.94 30.9402Z" stroke="#F48A0B" stroke-width="3" stroke-miterlimit="10" stroke-linecap="round" stroke-linejoin="round"/>
<path d="M56.8698 19.292H46.427C45.7367 19.292 45.177 18.7323 45.177 18.042V15.365C45.177 14.6745 45.7367 14.115 46.427 14.115H56.8698C57.5601 14.115 58.1198 14.6745 58.1198 15.365V18.042C58.1198 18.7323 57.5601 19.292 56.8698 19.292Z" stroke="#F48A0B" stroke-width="3" stroke-miterlimit="10" stroke-linecap="round" stroke-linejoin="round"/>
<path d="M72.4011 50.3545H69.7239C69.0336 50.3545 68.4739 49.7948 68.4739 49.1045V46.4275C68.4739 45.7371 69.0336 45.1775 69.7239 45.1775H72.4011C73.0914 45.1775 73.6511 45.7371 73.6511 46.4275V49.1045C73.6511 49.7948 73.0914 50.3545 72.4011 50.3545Z" stroke="#F48A0B" stroke-width="3" stroke-miterlimit="10" stroke-linecap="round" stroke-linejoin="round"/>
<path d="M45.177 24.4688H73.6511" stroke="#F48A0B" stroke-width="3" stroke-miterlimit="10" stroke-linecap="round" stroke-linejoin="round"/>
<path d="M45.177 29.6455H73.6511" stroke="#F48A0B" stroke-width="3" stroke-miterlimit="10" stroke-linecap="round" stroke-linejoin="round"/>
<path d="M45.177 34.8232H60.7083" stroke="#F48A0B" stroke-width="3" stroke-miterlimit="10" stroke-linecap="round" stroke-linejoin="round"/>
</g>
<defs>
<clipPath id="clip0_840_19281">
<rect width="80" height="80" fill="white"/>
</clipPath>
</defs>
</svg>
