<svg width="23" height="23" viewBox="0 0 23 23" fill="none" xmlns="http://www.w3.org/2000/svg">
<path fill-rule="evenodd" clip-rule="evenodd" d="M11.5007 0C9.83065 0.000112409 8.18063 0.363875 6.66536 1.06602C5.1501 1.76816 3.80594 2.79184 2.72632 4.06588C1.64671 5.33992 0.857535 6.83376 0.413664 8.44356C-0.0302071 10.0534 -0.118131 11.7405 0.15601 13.3877C0.430151 15.0349 1.05978 16.6027 2.00112 17.982C2.94247 19.3613 4.17294 20.5191 5.60702 21.3749C7.0411 22.2307 8.64438 22.764 10.3054 22.9376C11.9664 23.1113 13.6454 22.9212 15.2255 22.3805L12.478 16.2503L8.89876 18.8038L8.88032 5.65091L18.6886 14.4195L14.3992 15.3893L17.1452 21.5195C19.3597 20.2716 21.0984 18.3254 22.0896 15.9849C23.0808 13.6444 23.2686 11.0416 22.6237 8.58307C21.9789 6.12456 20.5377 3.94891 18.5253 2.39605C16.5129 0.843192 14.0427 0.000617738 11.5007 0Z" fill="#333333"/>
</svg>
