<svg width="32" height="32" viewBox="0 0 32 32" fill="none" xmlns="http://www.w3.org/2000/svg">
<path d="M9.33329 26.6663C8.22218 26.6663 7.27774 26.2775 6.49996 25.4997C5.72218 24.7219 5.33329 23.7775 5.33329 22.6663H1.99996L2.59996 19.9997H6.36663C6.7444 19.5775 7.18885 19.2497 7.69996 19.0163C8.21107 18.783 8.75552 18.6663 9.33329 18.6663C9.91107 18.6663 10.4555 18.783 10.9666 19.0163C11.4777 19.2497 11.9222 19.5775 12.3 19.9997H17.8666L20.6666 7.99967H6.06663L6.19996 7.43301C6.33329 6.81079 6.63885 6.30523 7.11663 5.91634C7.5944 5.52745 8.15552 5.33301 8.79996 5.33301H24L22.7666 10.6663H26.6666L30.6666 15.9997L29.3333 22.6663H26.6666C26.6666 23.7775 26.2777 24.7219 25.5 25.4997C24.7222 26.2775 23.7777 26.6663 22.6666 26.6663C21.5555 26.6663 20.6111 26.2775 19.8333 25.4997C19.0555 24.7219 18.6666 23.7775 18.6666 22.6663H13.3333C13.3333 23.7775 12.9444 24.7219 12.1666 25.4997C11.3888 26.2775 10.4444 26.6663 9.33329 26.6663ZM21.2333 17.333H27.6666L27.8 16.633L25.3333 13.333H22.1666L21.2333 17.333ZM20.6 8.23301L20.6666 7.99967L17.8666 19.9997L17.9333 19.7663L19.0666 14.8997L20.6 8.23301ZM0.666626 17.7663L1.33329 15.0997H8.66663L7.99996 17.7663H0.666626ZM3.33329 12.8997L3.99996 10.233H12.6666L12 12.8997H3.33329ZM9.33329 23.9997C9.71107 23.9997 10.0277 23.8719 10.2833 23.6163C10.5388 23.3608 10.6666 23.0441 10.6666 22.6663C10.6666 22.2886 10.5388 21.9719 10.2833 21.7163C10.0277 21.4608 9.71107 21.333 9.33329 21.333C8.95551 21.333 8.63885 21.4608 8.38329 21.7163C8.12774 21.9719 7.99996 22.2886 7.99996 22.6663C7.99996 23.0441 8.12774 23.3608 8.38329 23.6163C8.63885 23.8719 8.95551 23.9997 9.33329 23.9997ZM22.6666 23.9997C23.0444 23.9997 23.3611 23.8719 23.6166 23.6163C23.8722 23.3608 24 23.0441 24 22.6663C24 22.2886 23.8722 21.9719 23.6166 21.7163C23.3611 21.4608 23.0444 21.333 22.6666 21.333C22.2888 21.333 21.9722 21.4608 21.7166 21.7163C21.4611 21.9719 21.3333 22.2886 21.3333 22.6663C21.3333 23.0441 21.4611 23.3608 21.7166 23.6163C21.9722 23.8719 22.2888 23.9997 22.6666 23.9997Z" fill="#F48A0B"/>
</svg>
