<svg width="80" height="80" viewBox="0 0 80 80" fill="none" xmlns="http://www.w3.org/2000/svg">
<path d="M25.3125 13.4375H78.125V58.875H74.3125" stroke="#F48A0B" stroke-width="3" stroke-miterlimit="10" stroke-linecap="round"/>
<path d="M13.1875 50.5V35.9375" stroke="#F48A0B" stroke-width="3" stroke-miterlimit="10" stroke-linecap="round"/>
<path d="M29.875 24.375H77.9375" stroke="#F48A0B" stroke-width="3" stroke-miterlimit="10" stroke-linecap="round"/>
<path d="M57.625 18.25H58.125V18.75H57.625V18.25Z" stroke="#F48A0B" stroke-width="3" stroke-miterlimit="10" stroke-linecap="round"/>
<path d="M64.5 18.25H65V18.75H64.5V18.25Z" stroke="#F48A0B" stroke-width="3" stroke-miterlimit="10" stroke-linecap="round"/>
<path d="M71.3125 18.25H71.8125V18.75H71.3125V18.25Z" stroke="#F48A0B" stroke-width="3" stroke-miterlimit="10" stroke-linecap="round"/>
<path d="M33.25 59.3125L43.125 61.1875L48.8125 61.6875C54.5625 60.5625 60.25 59.5 66 58.375C68.0625 57.875 70.0625 59.125 70.625 61.0625C71.125 63 70.0625 65 68.125 65.6875C58.5625 67.4375 49.0625 69.1875 39.5 70.9375C38.6875 70.8125 37.6875 70.625 36.6875 70.3125C35.625 70 34.6875 69.625 33.9375 69.25L20.3125 64.625L8.4375 68.5625L8.75 56.0625C15.3125 54 21.8125 51.9375 28.375 49.875C35 51.625 41.625 53.3125 48.3125 55.0625C50.5 55.5 51.875 57.3125 51.75 59C51.625 60.5625 50.125 61.4375 49.9375 61.5625" stroke="#F48A0B" stroke-width="3" stroke-miterlimit="10"/>
<path d="M31.6875 33.125L33.5625 35L37.125 31.4375" stroke="#F48A0B" stroke-width="3" stroke-miterlimit="10" stroke-linecap="round"/>
<path d="M31.6875 42.875L33.5625 44.75L37.125 41.1875" stroke="#F48A0B" stroke-width="3" stroke-miterlimit="10" stroke-linecap="round"/>
<path d="M44.0625 33.1875H62.5625" stroke="#F48A0B" stroke-width="3" stroke-miterlimit="10" stroke-linecap="round"/>
<path d="M44.0625 43.5625H62.5625" stroke="#F48A0B" stroke-width="3" stroke-miterlimit="10" stroke-linecap="round"/>
<path d="M27.875 24.3125V19.75H25.3125C25.0625 18.5 24.5625 17.3125 23.875 16.25L25.6875 14.4375L22.4375 11.25L20.625 13.0625C19.5625 12.375 18.375 11.875 17.125 11.625V9.0625H12.5625V11.625C11.3125 11.875 10.125 12.375 9.0625 13.0625L7.3125 11.25L4.0625 14.5L5.875 16.25C5.1875 17.3125 4.6875 18.5 4.4375 19.75H1.875V24.3125H4.4375C4.6875 25.5625 5.1875 26.75 5.875 27.8125L4.0625 29.625L7.3125 32.875L9.125 31.0625C10.1875 31.75 11.375 32.25 12.625 32.5V35H17.1875V32.5C18.4375 32.25 19.625 31.75 20.6875 31.0625L22.5 32.875L25.75 29.625L23.9375 27.8125C24.625 26.75 25.125 25.5625 25.375 24.3125H27.875Z" stroke="#F48A0B" stroke-width="3" stroke-miterlimit="10" stroke-linecap="round"/>
<path d="M14.875 28.375C18.3613 28.375 21.1875 25.5488 21.1875 22.0625C21.1875 18.5762 18.3613 15.75 14.875 15.75C11.3887 15.75 8.5625 18.5762 8.5625 22.0625C8.5625 25.5488 11.3887 28.375 14.875 28.375Z" stroke="#F48A0B" stroke-width="3" stroke-miterlimit="10" stroke-linecap="round"/>
</svg>
