<svg width="217" height="71" viewBox="0 0 217 71" fill="none" xmlns="http://www.w3.org/2000/svg">
<path d="M13.0462 0L0 71H8.96923L20.3846 8.16092H32.6154L39.2232 47.3333H20.3846L18.7538 55.4943H40.5998L43.2154 71H53L39.9538 0H13.0462Z" fill="#F48A0B"/>
<path d="M94.6483 28.5H89.2438V15.3633H82.8493V28.5H77.4448V10.6544H94.6483V28.5ZM102.942 28.5H97.5372V10.6544H107.062C111.236 10.6544 113.483 13.4369 113.483 16.7813C113.483 20.0989 111.236 22.8814 107.062 22.8814H102.942V28.5ZM106.366 18.1725C107.276 18.1725 107.998 17.7177 107.998 16.7813C107.998 15.8181 107.276 15.3633 106.366 15.3633H102.942V18.1725H106.366ZM124.054 28.8211C118.543 28.8211 114.289 25.0754 114.289 19.5906C114.289 14.1058 118.543 10.3601 124.054 10.3601C129.566 10.3601 133.82 14.1058 133.82 19.5906C133.82 25.0754 129.566 28.8211 124.054 28.8211ZM124.054 24.0587C126.65 24.0587 128.335 22.0788 128.335 19.5906C128.335 17.1023 126.65 15.1225 124.054 15.1225C121.459 15.1225 119.774 17.1023 119.774 19.5906C119.774 22.0788 121.459 24.0587 124.054 24.0587ZM149.087 28.5H143.683V26.6807C138.037 26.1456 134.773 23.8179 134.773 19.5906C134.773 15.3633 138.037 13.0623 143.683 12.5272V10.6544H149.087V12.5272C154.706 13.0623 157.997 15.3633 157.997 19.5906C157.997 23.8179 154.706 26.1456 149.087 26.6807V28.5ZM140.258 19.5906C140.258 20.8748 141.382 21.6239 143.683 21.8915V17.2896C141.382 17.5839 140.258 18.3063 140.258 19.5906ZM152.512 19.5906C152.512 18.3063 151.388 17.5839 149.087 17.2896V21.8915C151.388 21.6239 152.512 20.8748 152.512 19.5906ZM165.121 28.5H159.931V10.6544H165.335V20.1792L171.543 10.6544H177.108V28.5H171.703V18.3866L165.121 28.5ZM179.087 28.8211V24.0587C180.613 24.0587 181.736 23.042 182.164 19.6441L183.261 10.6544H197.201V28.5H191.796V15.3633H188.131L187.542 20.0454C186.686 27.082 183.235 28.8211 179.087 28.8211ZM200.09 10.6544H205.494V16.2729H209.614C213.788 16.2729 216.036 19.0555 216.036 22.3731C216.036 25.7175 213.788 28.5 209.614 28.5H200.09V10.6544ZM208.919 20.9818H205.494V23.7911H208.919C209.828 23.7911 210.551 23.3363 210.551 22.3731C210.551 21.4367 209.828 20.9818 208.919 20.9818Z" fill="#16161C"/>
<path d="M95.4777 58.5H89.3508L88.7087 56.4131H82.2874L81.6453 58.5H75.5184L82.1002 40.6544H88.8959L95.4777 58.5ZM87.2639 51.7042L85.498 45.9519L83.7322 51.7042H87.2639ZM101.844 58.5H96.4398V40.6544H105.965C110.138 40.6544 112.386 43.4369 112.386 46.7813C112.386 50.0989 110.138 52.8814 105.965 52.8814H101.844V58.5ZM105.269 48.1725C106.179 48.1725 106.901 47.7177 106.901 46.7813C106.901 45.8181 106.179 45.3633 105.269 45.3633H101.844V48.1725H105.269ZM135.345 58.5H129.94V47.7712L125.954 58.5H123.546L119.559 47.7712V58.5H114.155V40.6544H121.619L124.75 49.216L127.88 40.6544H135.345V58.5ZM156.278 58.5H150.151L149.508 56.4131H143.087L142.445 58.5H136.318L142.9 40.6544H149.696L156.278 58.5ZM148.064 51.7042L146.298 45.9519L144.532 51.7042H148.064Z" fill="#F48A0B"/>
<path d="M53 71L39.9538 0H26.5V8.16092H32.6154L39.2232 47.3333H26.5V55.4943H40.5998L43.2154 71H53Z" fill="#16161C"/>
</svg>
