<svg width="176" height="115" viewBox="0 0 176 115" fill="none" xmlns="http://www.w3.org/2000/svg">
<path d="M89.932 83.5918H96.6078V47.4465H89.932V83.5918ZM81.9242 83.5918H88.5984V39.4136H81.9242V83.5918ZM73.9178 83.5918H80.5906V47.4465H73.9178V83.5918Z" fill="#D9BB6C"/>
<path d="M112.618 43.4256L105.949 50.1192V27.3413H112.624M104.614 51.4555L97.94 58.1537V19.3007H104.614M89.9321 46.1058H96.6094V11.2876H89.9321V46.1058ZM81.9242 38.0728H88.5969V3.26074H81.9242V38.0728ZM73.9179 46.1058H80.5891V11.2876H73.9179V46.1058ZM72.5812 58.1522L65.907 51.4555V19.3007H72.5812M57.9006 27.3413V43.4241L64.5718 50.1207V27.3413" fill="black"/>
<path d="M20.7635 91.8389C24.1036 91.8389 26.8335 94.5344 26.8335 97.8284V99.1141C26.8335 101.917 24.8574 104.283 22.2161 104.929L27.7108 111.739H19.7762L14.4219 105.105H11.1794V111.739H3.24474V91.8404C3.15782 91.8404 12.5771 91.8389 20.7635 91.8389ZM11.1794 100.461H17.9207C18.9217 100.461 19.7427 99.6533 19.7427 98.6644V98.2802C19.7427 97.2899 18.9232 96.4832 17.9207 96.4832H11.1794M60.1482 111.738H71.3894C74.8456 111.738 77.673 108.903 77.673 105.438C77.673 101.969 74.8456 99.1359 71.3894 99.1359H63.5326C62.9452 99.1359 62.463 98.6537 62.463 98.0659V97.5516C62.463 96.9639 62.9436 96.4832 63.5326 96.4832H68.6688C69.2562 96.4832 69.7369 96.9639 69.7369 97.5516V97.8073H77.6639C77.4884 94.4949 74.7342 91.8392 71.3894 91.8392H60.1482C56.6951 91.8392 53.8661 94.674 53.8661 98.141C53.8661 101.606 56.6951 104.441 60.1482 104.441H68.008C68.5955 104.441 69.0777 104.923 69.0777 105.513V106.025C69.0777 106.613 68.594 107.097 68.008 107.097H62.8704C62.2829 107.097 61.8023 106.613 61.8023 106.025V105.77H53.8753C54.0492 109.079 56.805 111.738 60.1482 111.738ZM96.1882 111.738H104.121V91.8392H96.1882V103.309L86.9291 91.8392H78.996V111.738H86.9291V100.27M128.51 111.738H136.446V104.441H148.335V99.1359L136.446 99.1022V97.146H149.823V91.8392H128.51M27.7154 101.761C27.7154 108.279 31.962 111.738 40.3498 111.738C48.7391 111.738 52.9857 108.279 52.9857 101.761C52.9857 95.2419 48.7391 91.8392 40.3498 91.8392C31.962 91.8392 27.7154 95.2419 27.7154 101.761ZM40.3498 96.4817C42.9285 96.4817 45.0358 98.2802 45.0358 100.484V103.093C45.0358 105.295 42.9285 107.098 40.3498 107.098C37.7741 107.098 35.6653 105.295 35.6653 103.093V100.484C35.6653 98.2802 37.7741 96.4817 40.3498 96.4817ZM105.667 111.738H127.629V106.433H113.6V104.441H125.488V99.1359L113.6 99.1022V97.146H126.978V91.8392H105.667M157.862 111.738H165.799V97.146H172.756V91.8407H150.705V97.146H157.862" fill="black"/>
</svg>
