<svg width="100" height="117" viewBox="0 0 100 117" fill="none" xmlns="http://www.w3.org/2000/svg">
<g clip-path="url(#clip0_1192_233)">
<path d="M52.9065 101.606V116.079C52.9065 116.377 53.2046 116.527 53.3536 116.527C56.7813 116.228 60.06 115.631 63.1897 114.736C63.3387 114.736 63.4878 114.438 63.4878 114.289V78.7786C63.4878 78.4802 63.3387 78.331 63.0407 78.331C59.911 78.0326 56.6323 77.7342 53.3536 77.585C53.0556 77.585 52.9065 77.7342 52.9065 78.0326V90.864H47.2433V78.0326C47.2433 77.7342 47.0943 77.585 46.7962 77.585C43.5176 77.7342 40.2389 77.8834 37.1092 78.1818C36.8111 78.1818 36.6621 78.331 36.6621 78.6294V114.139C36.6621 114.289 36.8111 114.587 36.9602 114.587C40.0898 115.482 43.3685 116.079 46.7962 116.377C47.0943 116.377 47.2433 116.228 47.2433 115.93V101.457H52.9065V101.606Z" fill="#265841"/>
<path d="M33.6809 78.778C29.6571 79.3748 25.7823 80.1209 22.0565 81.1653C21.9075 81.1653 21.7584 81.3145 21.7584 81.4637L17.2875 91.0126H16.3933V83.5525C16.3933 83.2541 16.0952 82.9557 15.7972 83.1049C13.1146 84.0001 10.5811 85.0445 8.19657 86.2381C7.74948 86.5365 7.30239 86.6857 6.85529 86.9841C6.70626 87.1333 6.55723 87.4317 6.70626 87.5809C10.134 93.9966 14.4559 99.8155 19.3739 104.441C19.5229 104.59 19.97 104.59 20.1191 104.292L22.8016 98.771H23.5468V107.723C23.5468 107.873 23.5468 108.022 23.6958 108.022C26.6765 110.26 29.9551 112.05 33.5319 113.542C33.83 113.691 34.128 113.393 34.128 113.095V79.2256C34.128 78.9272 33.83 78.6288 33.6809 78.778Z" fill="#265841"/>
<path d="M89.1207 85.6416C88.0775 84.8956 84.3517 82.956 82.1163 82.0608C81.9672 81.9116 81.6692 82.0608 81.5201 82.3592C80.775 84.0004 77.3473 90.8637 77.3473 90.8637H76.6021V81.1656C76.6021 81.0164 76.4531 80.718 76.304 80.718C73.1744 79.9719 69.8957 79.3751 66.617 78.7783C66.3189 78.7783 66.1699 78.9275 66.1699 79.2259V112.945C66.1699 113.244 66.468 113.542 66.766 113.393C70.1938 111.901 73.4724 110.11 76.6021 107.872C76.7511 107.723 76.7511 107.723 76.7511 107.574V101.457C78.6885 101.308 80.775 102.054 81.8182 103.098C84.0537 100.86 86.5872 98.0253 88.5246 95.3397C88.6736 95.1905 88.6736 94.8921 88.5246 94.7429C87.7795 94.1461 87.0343 93.5493 86.1401 92.9525L89.4188 86.0892C89.4188 86.0892 89.4188 85.7908 89.1207 85.6416Z" fill="#265841"/>
<path d="M67.512 4.02844C67.8101 3.87924 67.8101 3.43163 67.363 3.28243C63.6372 1.64122 59.6134 0.596806 55.4405 0C51.1186 14.0249 51.1186 30.5863 50.5225 72.9595C50.9696 72.9595 51.2676 72.9595 51.7147 72.9595C53.205 40.2844 53.5031 13.7265 67.512 4.02844Z" fill="#1E2227"/>
<path d="M59.9111 41.4783C65.1272 25.9614 73.3239 18.2029 85.6935 17.7553C85.9916 17.7553 86.2897 17.3077 85.9916 17.0093C83.011 13.4284 79.5833 10.4444 75.8575 7.75879C64.084 11.9364 58.8679 22.2313 56.0363 40.7323C54.695 49.386 53.6518 60.2777 53.0557 72.9598C53.5028 72.9598 53.8008 72.9598 54.2479 72.9598C54.8441 62.8141 57.2286 49.6844 59.9111 41.4783Z" fill="#1E2227"/>
<path d="M62.444 53.7124C71.982 35.2114 88.6735 32.8242 97.9133 41.9255C98.2114 42.2239 98.8075 41.9255 98.6586 41.4779C97.1683 35.5098 94.9328 29.9894 91.9522 25.0657C70.7897 19.2469 57.824 43.5667 55.4395 73.1086C55.8866 73.1086 56.1847 73.1086 56.6317 73.1086C57.824 65.0517 59.0163 60.5757 62.444 53.7124Z" fill="#1E2227"/>
<path d="M99.701 51.6235C91.6534 42.0747 76.7502 39.6874 66.467 52.8172C62.7413 57.4424 59.1645 64.3057 57.8232 73.2578C58.2703 73.2578 58.7174 73.2578 59.0155 73.407C61.1019 64.4549 66.7651 59.6804 71.9812 58.1884C84.2018 54.4584 96.2733 63.4105 97.3165 73.7054C97.3165 74.153 98.0617 74.0038 98.2107 73.7054C99.403 68.7817 99.9991 63.7089 99.9991 58.3376C99.9991 55.9504 99.8501 53.7124 99.701 51.6235Z" fill="#1E2227"/>
<path d="M44.4116 0C40.2387 0.596806 36.2149 1.64122 32.4891 3.28243C32.191 3.43163 32.191 3.87924 32.3401 4.02844C46.349 13.5773 46.7961 40.2844 48.1374 72.9595C48.5845 72.9595 48.8825 72.9595 49.3296 72.9595C48.7335 30.5863 48.7335 14.0249 44.4116 0Z" fill="#1E2227"/>
<path d="M43.9651 40.7321C41.1335 22.2311 35.9174 11.9362 23.9949 7.90771C20.2691 10.4442 16.9904 13.5774 13.8608 17.1582C13.5627 17.4566 13.8608 17.9043 14.1588 17.9043C26.5284 18.3519 34.7252 26.1103 39.9413 41.6273C42.6238 49.6842 45.0083 62.9631 45.6045 73.1088C46.0515 73.1088 46.3496 73.1088 46.7967 73.1088C46.3496 60.2775 45.4554 49.535 43.9651 40.7321Z" fill="#1E2227"/>
<path d="M8.04732 25.0661C5.06669 29.9898 2.83122 35.5102 1.34091 41.4783C1.19188 41.9259 1.788 42.2243 2.08607 41.9259C11.326 32.8246 28.0175 35.361 37.5555 53.7128C40.9833 60.4269 42.3245 64.903 43.3678 73.1091C43.8148 73.1091 44.1129 73.1091 44.56 73.1091C42.1755 43.5672 29.2098 19.2473 8.04732 25.0661Z" fill="#1E2227"/>
<path d="M33.5321 52.8176C23.2489 39.8371 8.34576 42.2243 0.298063 51.624C0.149031 53.7128 0 55.9508 0 58.0396C0 63.4109 0.596125 68.4837 1.78838 73.4074C1.93741 73.855 2.53353 73.855 2.68256 73.4074C4.17288 63.2617 15.0522 54.7572 28.0179 57.8904C33.383 59.2332 38.8972 64.1569 40.9836 73.109C41.4307 73.109 41.7288 73.109 42.1759 72.9598C40.8346 64.3061 37.2578 57.4428 33.5321 52.8176Z" fill="#1E2227"/>
</g>
<defs>
<clipPath id="clip0_1192_233">
<rect width="100" height="117" fill="white"/>
</clipPath>
</defs>
</svg>
