<svg width="124" height="78" viewBox="0 0 124 78" fill="none" xmlns="http://www.w3.org/2000/svg">
<path d="M63.3609 56.6971H68.0642V32.1811H63.3609V56.6971ZM57.719 56.6971H62.4213V26.7327H57.719V56.6971ZM52.0781 56.6971H56.7794V32.1811H52.0781V56.6971Z" fill="#D9BB6C"/>
<path d="M79.3474 29.4542L74.6494 33.9942V18.5448H79.3517M73.7087 34.9005L69.0064 39.4437V13.0912H73.7087M63.3645 31.272H68.069V7.65621H63.3645V31.272ZM57.7226 25.8236H62.4238V2.21191H57.7226V25.8236ZM52.0818 31.272H56.7819V7.65621H52.0818V31.272ZM51.14 39.4426L46.4377 34.9005V13.0912H51.14M40.7969 18.5448V29.4531L45.497 33.9952V18.5448" fill="#16161C"/>
<path d="M14.6322 62.291C16.9855 62.291 18.9088 64.1193 18.9088 66.3535V67.2256C18.9088 69.1265 17.5166 70.7315 15.6557 71.1697L19.527 75.7886H13.9367L10.1643 71.2891H7.87979V75.7886H2.28948V62.2921C2.22825 62.2921 8.86454 62.291 14.6322 62.291ZM7.87979 68.1394H12.6294C13.3346 68.1394 13.913 67.5912 13.913 66.9205V66.6599C13.913 65.9882 13.3357 65.4411 12.6294 65.4411H7.87979M42.3806 75.7878H50.3005C52.7355 75.7878 54.7276 73.865 54.7276 71.5145C54.7276 69.162 52.7355 67.2403 50.3005 67.2403H44.765C44.3511 67.2403 44.0114 66.9133 44.0114 66.5146V66.1658C44.0114 65.7671 44.3501 65.4411 44.765 65.4411H48.3837C48.7976 65.4411 49.1362 65.7671 49.1362 66.1658V66.3391H54.7212C54.5975 64.0925 52.657 62.2912 50.3005 62.2912H42.3806C39.9477 62.2912 37.9545 64.214 37.9545 66.5655C37.9545 68.9159 39.9477 70.8387 42.3806 70.8387H47.9182C48.3321 70.8387 48.6718 71.1657 48.6718 71.5654V71.9132C48.6718 72.3119 48.331 72.64 47.9182 72.64H44.2985C43.8846 72.64 43.5459 72.3119 43.5459 71.9132V71.7398H37.961C38.0835 73.9844 40.0251 75.7878 42.3806 75.7878ZM67.7724 75.7878H73.3616V62.2912H67.7724V70.0704L61.2489 62.2912H55.6597V75.7878H61.2489V68.0096M90.5443 75.7878H96.1356V70.8387H104.512V67.2403L96.1356 67.2175V65.8906H105.561V62.2912H90.5443M19.5302 69.0208C19.5302 73.4414 22.5221 75.7878 28.4317 75.7878C34.3423 75.7878 37.3342 73.4414 37.3342 69.0208C37.3342 64.5991 34.3423 62.2912 28.4317 62.2912C22.5221 62.2912 19.5302 64.5991 19.5302 69.0208ZM28.4317 65.4401C30.2485 65.4401 31.7332 66.6599 31.7332 68.1549V69.924C31.7332 71.418 30.2485 72.641 28.4317 72.641C26.617 72.641 25.1312 71.418 25.1312 69.924V68.1549C25.1312 66.6599 26.617 65.4401 28.4317 65.4401ZM74.4506 75.7878H89.9239V72.1894H80.0399V70.8387H88.4156V67.2403L80.0399 67.2175V65.8906H89.4649V62.2912H74.4506M111.224 75.7878H116.817V65.8906H121.718V62.2923H106.182V65.8906H111.224" fill="#16161C"/>
</svg>
