<svg width="125" height="146" viewBox="0 0 125 146" fill="none" xmlns="http://www.w3.org/2000/svg">
<rect width="125" height="133" fill="#16161C"/>
<path d="M49.0462 31L36 102H44.9692L56.3846 39.1609H68.6154L75.2232 78.3333H56.3846L54.7538 86.4943H76.5998L79.2154 102H89L75.9538 31H49.0462Z" fill="#F48A0B"/>
<path d="M89 102L75.9538 31H62.5V39.1609H68.6154L75.2232 78.3333H62.5V86.4943H76.5998L79.2154 102H89Z" fill="white"/>
<path d="M89 102L75.9538 31H62.5V39.1609H68.6154L75.2232 78.3333H62.5V86.4943H76.5998L79.2154 102H89Z" fill="#ECEFF1" fill-opacity="0.5"/>
<path d="M63 146L55 133L71 133L63 146Z" fill="#16161C"/>
</svg>
