<svg width="80" height="80" viewBox="0 0 80 80" fill="none" xmlns="http://www.w3.org/2000/svg">
<g clip-path="url(#clip0_840_19261)">
<path d="M64.0135 43.4219L49.3575 58.0779L42.6956 51.4161L35.4873 58.6244L49.3575 72.4945L71.2218 50.6302L64.0135 43.4219ZM49.3575 68.7369L39.245 58.6244L42.6956 55.1738L49.3575 61.8356L64.0135 47.1796L67.4641 50.6302L49.3575 68.7369Z" fill="#F48A0B"/>
<path d="M37.3662 17.3203H58.6841V19.985H37.3662V17.3203Z" fill="#F48A0B"/>
<path d="M37.3662 23.9824H58.6841V26.6472H37.3662V23.9824Z" fill="#F48A0B"/>
<path d="M10.7188 34.6416H33.369V37.3063H10.7188V34.6416Z" fill="#F48A0B"/>
<path d="M10.7188 41.3027H28.0395V43.9675H10.7188V41.3027Z" fill="#F48A0B"/>
<path d="M33.369 13.3242H10.7188V29.3126H33.369V13.3242ZM30.7043 26.6479H13.3835V15.989H30.7043V26.6479Z" fill="#F48A0B"/>
<path d="M65.3465 38.0819V9.32665H69.4477L69.2083 7.7809C68.9012 5.86562 67.9904 4.10127 66.6112 2.74289C64.8729 0.978539 62.4944 -0.0103278 60.017 8.13529e-05H13.3842C8.23167 0.00528591 4.06282 4.17934 4.05762 9.32665V75.945H40.5104C47.2711 80.65 56.0564 81.3109 63.4469 77.6677C70.8425 74.0298 75.6724 66.6601 76.0679 58.4317C76.4583 50.2033 72.3519 42.4068 65.3465 38.0819ZM60.017 2.66482C62.6662 2.67522 65.0603 4.2418 66.1324 6.66192H22.3204C21.8936 5.17341 21.0869 3.82543 19.9784 2.74289C19.9471 2.71686 19.9159 2.68563 19.8847 2.66482H60.017ZM6.72235 73.2803V9.32665C6.72235 6.63069 8.34618 4.20016 10.8392 3.16966C13.3269 2.14436 16.1947 2.71686 18.0995 4.62173C19.078 5.58978 19.7233 6.84928 19.9367 8.20767L20.1241 9.32665H62.6818V36.6558C52.715 32.1434 40.9527 35.4015 34.7281 44.395C28.5034 53.3833 29.5964 65.5411 37.3252 73.2803H6.72235ZM65.3465 73.2803C64.9197 73.5874 64.493 73.8944 64.0402 74.1755L63.3063 74.6127C62.4164 75.1331 61.4847 75.5807 60.5219 75.945C54.0995 78.412 46.8651 77.4023 41.3639 73.2803C41.0568 73.0565 40.7602 72.8119 40.4843 72.5725C34.0671 67.1649 31.7094 58.3224 34.5876 50.4427C37.4657 42.5578 44.9603 37.3116 53.3552 37.3064C56.6029 37.2908 59.8089 38.0819 62.6818 39.612L62.7599 39.6536C68.7919 42.8648 72.763 48.9438 73.2835 55.7565C73.8091 62.5693 70.8113 69.1791 65.3465 73.2803Z" fill="#F48A0B"/>
<path d="M10.7188 47.9648H28.0395V50.6296H10.7188V47.9648Z" fill="#F48A0B"/>
</g>
<defs>
<clipPath id="clip0_840_19261">
<rect width="80" height="80" fill="white"/>
</clipPath>
</defs>
</svg>
