<svg width="80" height="80" viewBox="0 0 80 80" fill="none" xmlns="http://www.w3.org/2000/svg">
<g clip-path="url(#clip0_840_19270)">
<path d="M6.66667 80.0003H66.6667C67.403 80.0003 68 79.4033 68 78.667V44.0003H65.3333V77.3337H6.66667C4.45768 77.3337 2.66667 75.5426 2.66667 73.3337C2.66667 71.1247 4.45768 69.3337 6.66667 69.3337H9.33333C10.0697 69.3337 10.6667 68.7367 10.6667 68.0003V28.0003H32V25.3337H10.6667V16.0003C10.6667 15.264 10.0697 14.667 9.33333 14.667H6.66667C2.98633 14.6715 0.0045573 17.6533 0 21.3337V73.3337C0.0045573 77.014 2.98633 79.9958 6.66667 80.0003ZM2.66667 26.667V21.3337C2.66667 19.1247 4.45768 17.3337 6.66667 17.3337H8V66.667H6.66667C5.22396 66.665 3.81966 67.1331 2.66667 68.0003V26.667Z" fill="#F48A0B"/>
<path d="M30.6666 32H14.6666C13.9303 32 13.3333 32.597 13.3333 33.3333V44C13.3333 44.7363 13.9303 45.3333 14.6666 45.3333H30.6666C31.403 45.3333 32 44.7363 32 44V40H37.3333V37.3333H32V33.3333C32 32.597 31.403 32 30.6666 32ZM29.3333 42.6667H16V34.6667H29.3333V42.6667Z" fill="#F48A0B"/>
<path d="M44 69.3333H60C60.7363 69.3333 61.3333 68.7363 61.3333 68V57.3333C61.3333 56.597 60.7363 56 60 56H53.3333V48H50.6666V56H44C43.2637 56 42.6666 56.597 42.6666 57.3333V61.3333H32V57.3333C32 56.597 31.403 56 30.6666 56H14.6666C13.9303 56 13.3333 56.597 13.3333 57.3333V68C13.3333 68.7363 13.9303 69.3333 14.6666 69.3333H30.6666C31.403 69.3333 32 68.7363 32 68V64H42.6666V68C42.6666 68.7363 43.2637 69.3333 44 69.3333ZM45.3333 58.6667H58.6666V66.6667H45.3333V58.6667ZM29.3333 66.6667H16V58.6667H29.3333V66.6667Z" fill="#F48A0B"/>
<path d="M57.3333 10.667C50.7057 10.667 45.3333 16.0394 45.3333 22.667C45.3333 29.2946 50.7057 34.667 57.3333 34.667C63.9609 34.667 69.3333 29.2946 69.3333 22.667C69.3262 16.0426 63.9577 10.6742 57.3333 10.667ZM57.3333 32.0003C52.1784 32.0003 48 27.8219 48 22.667C48 17.512 52.1784 13.3337 57.3333 13.3337C62.4883 13.3337 66.6666 17.512 66.6666 22.667C66.6608 27.8193 62.4857 31.9945 57.3333 32.0003Z" fill="#F48A0B"/>
<path d="M78.6667 28C79.403 28 80 27.403 80 26.6667V18.6667C80 17.9303 79.403 17.3333 78.6667 17.3333H73.8093C73.5248 16.4583 73.1719 15.6068 72.7546 14.7865L76.1947 11.3587C76.4453 11.1087 76.5866 10.7689 76.5866 10.4147C76.5866 10.0605 76.4453 9.7207 76.1947 9.4707L70.5332 3.80404C70.2832 3.55404 69.944 3.41341 69.5905 3.41341C69.237 3.41406 68.8978 3.55469 68.6478 3.80534L65.2136 7.24544C64.3932 6.82813 63.5417 6.47591 62.6667 6.19076V1.33333C62.6667 0.597005 62.0697 0 61.3334 0H53.3334C52.597 0 52 0.597005 52 1.33333V6.19076C51.125 6.47591 50.2735 6.82813 49.4531 7.24544L46.0241 3.80534C45.7741 3.55469 45.4349 3.41406 45.0814 3.41341C44.7279 3.41341 44.3887 3.55404 44.1387 3.80404L38.4707 9.4668C38.2201 9.7168 38.0788 10.0566 38.0788 10.4108C38.0788 10.765 38.2201 11.1048 38.4707 11.3548L41.9108 14.7826C41.4935 15.6042 41.1413 16.457 40.8574 17.3333H36C35.2637 17.3333 34.6667 17.9303 34.6667 18.6667V26.6667C34.6667 27.403 35.2637 28 36 28H40.8574C41.1419 28.875 41.4948 29.7266 41.9121 30.5469L38.472 33.9746C38.2207 34.2246 38.0794 34.5651 38.0794 34.9193C38.0794 35.2741 38.2207 35.6139 38.472 35.8639L44.1335 41.5163C44.6543 42.0365 45.4981 42.0365 46.0189 41.5163L49.4479 38.0879C50.2702 38.5052 51.1237 38.8574 52 39.1426V44C52 44.7363 52.597 45.3333 53.3334 45.3333H61.3334C62.0697 45.3333 62.6667 44.7363 62.6667 44V39.1426C63.5423 38.8574 64.3939 38.5052 65.2149 38.0879L68.6439 41.5163C69.1647 42.0358 70.0072 42.0358 70.528 41.5163L76.1947 35.8626C76.446 35.6126 76.5873 35.2728 76.5873 34.918C76.5873 34.5632 76.446 34.2233 76.1947 33.9733L72.7546 30.5456C73.1719 29.7259 73.5248 28.8743 73.8093 28H78.6667ZM71.5254 26.3268C71.1745 27.6543 70.6465 28.9284 69.9544 30.1146C69.6491 30.6387 69.7357 31.3027 70.1654 31.7305L73.3653 34.9199L69.5879 38.6895L66.3998 35.4974C65.972 35.069 65.3086 34.9831 64.7852 35.2878C63.5996 35.9798 62.3249 36.5078 60.9974 36.8574C60.4102 37.0104 60.0007 37.5404 60 38.1465V42.6667H54.6667V38.1465C54.6667 37.541 54.2585 37.0117 53.6732 36.8574C52.3457 36.5078 51.071 35.9798 49.8854 35.2878C49.362 34.9831 48.6986 35.069 48.2709 35.4974L45.0801 38.6882L41.3028 34.9199L44.5026 31.7305C44.9323 31.3027 45.0189 30.6387 44.7136 30.1146C44.0215 28.9284 43.4935 27.6543 43.1426 26.3268C42.9883 25.7415 42.459 25.3333 41.8535 25.3333H37.3334V20H41.8535C42.4584 19.9993 42.987 19.5918 43.1413 19.0065C43.4922 17.679 44.0202 16.4049 44.7123 15.2188C45.0176 14.6947 44.931 14.0306 44.5013 13.6029L41.3015 10.4121L45.0801 6.63346L48.2709 9.83333C48.6986 10.263 49.3627 10.3496 49.8867 10.0443C51.0723 9.35221 52.347 8.82422 53.6745 8.47461C54.2591 8.31966 54.666 7.79102 54.6667 7.18685V2.66667H60V7.18685C60 7.79232 60.4082 8.32162 60.9935 8.47591C62.321 8.82552 63.5957 9.35352 64.7813 10.0456C65.306 10.3522 65.9714 10.2656 66.3998 9.83464L69.5905 6.63477L73.3692 10.4134L70.1693 13.6042C69.7396 14.0319 69.653 14.696 69.959 15.2201C70.6504 16.4062 71.1784 17.6803 71.5293 19.0078C71.6836 19.5911 72.2103 19.998 72.8132 20H77.3334V25.3333H72.8132C72.2084 25.334 71.6797 25.7415 71.5254 26.3268Z" fill="#F48A0B"/>
<path d="M57.3333 17.333C54.388 17.333 52 19.721 52 22.6663C52 25.6117 54.388 27.9997 57.3333 27.9997C60.2786 27.9997 62.6667 25.6117 62.6667 22.6663C62.6667 19.721 60.2786 17.333 57.3333 17.333ZM57.3333 25.333C55.8607 25.333 54.6667 24.139 54.6667 22.6663C54.6667 21.1937 55.8607 19.9997 57.3333 19.9997C58.806 19.9997 60 21.1937 60 22.6663C60 24.139 58.806 25.333 57.3333 25.333Z" fill="#F48A0B"/>
</g>
<defs>
<clipPath id="clip0_840_19270">
<rect width="80" height="80" fill="white"/>
</clipPath>
</defs>
</svg>
