<svg width="80" height="80" viewBox="0 0 80 80" fill="none" xmlns="http://www.w3.org/2000/svg">
<path d="M72 14.4001C71.9948 14.0711 71.8883 13.7517 71.6951 13.4855C71.5018 13.2192 71.2312 13.019 70.92 12.9121L40.52 2.51207C40.1838 2.39181 39.8162 2.39181 39.48 2.51207L9.07999 12.9121C8.76882 13.019 8.49817 13.2192 8.30491 13.4855C8.11165 13.7517 8.00517 14.0711 7.99999 14.4001L7.91999 19.1201C7.67999 33.6561 8.85599 44.0881 11.528 51.0241C13.5314 56.2466 16.5526 61.019 20.416 65.0641C25.0376 69.7643 30.5144 73.5385 36.552 76.1841L39.336 77.4561C39.5444 77.5511 39.7709 77.6004 40 77.6004C40.2291 77.6004 40.4555 77.5511 40.664 77.4561L43.448 76.1841C49.4856 73.5385 54.9623 69.7643 59.584 65.0641C63.4511 61.0173 66.4751 56.2421 68.48 51.0161C71.152 44.0801 72.328 33.6481 72.088 19.1121L72 14.4001ZM65.496 49.8641C63.6447 54.698 60.849 59.1146 57.272 62.8561C52.9279 67.2502 47.7889 70.7794 42.128 73.2561L40 74.2401L37.872 73.2721C32.2111 70.7954 27.072 67.2662 22.728 62.8721C19.1492 59.1259 16.3533 54.7037 14.504 49.8641C12 43.3201 10.872 33.2801 11.112 19.2001L11.168 15.6001L40 5.68807L68.8 15.5681L68.856 19.1681C69.128 33.2801 68 43.3201 65.496 49.8641Z" fill="#F48A0B"/>
<path d="M64 20.0004C63.9965 19.6701 63.8908 19.3489 63.6974 19.0811C63.504 18.8132 63.2325 18.6118 62.92 18.5044L40.52 10.8244C40.1824 10.7122 39.8176 10.7122 39.48 10.8244L17.08 18.5044C16.7676 18.6118 16.496 18.8132 16.3027 19.0811C16.1093 19.3489 16.0036 19.6701 16 20.0004V20.1524C15.784 32.8404 16.8 42.5044 18.968 48.1044C20.5536 52.2547 22.9525 56.0463 26.024 59.2564C29.8107 63.1055 34.296 66.1979 39.24 68.3684L39.336 68.4084C39.5424 68.5103 39.7698 68.5624 40 68.5604C40.2291 68.5605 40.4555 68.5114 40.664 68.4164L40.76 68.3684C45.7071 66.2092 50.1978 63.1277 53.992 59.2884C57.0635 56.0783 59.4625 52.2867 61.048 48.1364C63.2 42.5364 64.248 32.8724 64.016 20.1924L64 20.0004ZM58.04 46.9604C56.5986 50.7128 54.4228 54.1397 51.64 57.0404C48.2934 60.4494 44.3476 63.2128 40 65.1924C35.6407 63.2266 31.6812 60.4739 28.32 57.0724C25.5373 54.1717 23.3614 50.7448 21.92 46.9924C20 41.9044 19.024 33.0084 19.2 21.2004L40 14.0644L60.8 21.2004C60.976 33.0004 60 41.9044 58.056 46.9924L58.04 46.9604Z" fill="#F48A0B"/>
<path d="M47.512 32.2638L36.104 43.6718L32.488 40.0558C32.3394 39.9072 32.1629 39.7892 31.9686 39.7088C31.7744 39.6283 31.5662 39.5869 31.356 39.5869C31.1458 39.5869 30.9376 39.6283 30.7434 39.7088C30.5492 39.7892 30.3727 39.9072 30.224 40.0558C30.0754 40.2045 29.9574 40.3809 29.877 40.5752C29.7965 40.7694 29.7551 40.9776 29.7551 41.1878C29.7551 41.398 29.7965 41.6062 29.877 41.8004C29.9574 41.9947 30.0754 42.1712 30.224 42.3198L34.968 47.0638C35.1169 47.2135 35.2939 47.3323 35.4888 47.4133C35.6838 47.4944 35.8929 47.536 36.104 47.5358C36.5277 47.534 36.9333 47.3643 37.232 47.0638L49.776 34.5278C49.9247 34.3792 50.0426 34.2027 50.123 34.0084C50.2035 33.8142 50.2449 33.606 50.2449 33.3958C50.2449 33.1856 50.2035 32.9774 50.123 32.7832C50.0426 32.5889 49.9247 32.4125 49.776 32.2638C49.6274 32.1152 49.4509 31.9972 49.2567 31.9168C49.0624 31.8363 48.8542 31.7949 48.644 31.7949C48.4338 31.7949 48.2256 31.8363 48.0314 31.9168C47.8372 31.9972 47.6607 32.1152 47.512 32.2638Z" fill="#F48A0B"/>
</svg>
