<svg width="265" height="87" viewBox="0 0 265 87" fill="none" xmlns="http://www.w3.org/2000/svg">
<path d="M15.9319 0L0 86.7051H10.9532L24.8937 9.9661H39.8298L47.8993 57.8034H24.8937L22.9022 67.7695H49.5804L52.7745 86.7051H64.7235L48.7916 0H15.9319Z" fill="#F4890B"/>
<path d="M115.584 42.7949H108.984V26.7524H101.175V42.7949H94.5754V21.0019H115.584V42.7949ZM125.712 42.7949H119.112V21.0019H130.744C135.841 21.0019 138.586 24.3999 138.586 28.484C138.586 32.5355 135.841 35.9335 130.744 35.9335H125.712V42.7949ZM129.894 30.1831C131.005 30.1831 131.887 29.6276 131.887 28.484C131.887 27.3078 131.005 26.7524 129.894 26.7524H125.712V30.1831H129.894ZM151.495 43.187C144.764 43.187 139.569 38.6127 139.569 31.9147C139.569 25.2167 144.764 20.6425 151.495 20.6425C158.226 20.6425 163.421 25.2167 163.421 31.9147C163.421 38.6127 158.226 43.187 151.495 43.187ZM151.495 37.3712C154.664 37.3712 156.723 34.9533 156.723 31.9147C156.723 28.8761 154.664 26.4583 151.495 26.4583C148.326 26.4583 146.267 28.8761 146.267 31.9147C146.267 34.9533 148.326 37.3712 151.495 37.3712ZM182.065 42.7949H175.465V40.5731C168.571 39.9197 164.585 37.0771 164.585 31.9147C164.585 26.7524 168.571 23.9425 175.465 23.289V21.0019H182.065V23.289C188.926 23.9425 192.945 26.7524 192.945 31.9147C192.945 37.0771 188.926 39.9197 182.065 40.5731V42.7949ZM171.283 31.9147C171.283 33.483 172.655 34.3979 175.465 34.7246V29.1048C172.655 29.4642 171.283 30.3464 171.283 31.9147ZM186.247 31.9147C186.247 30.3464 184.875 29.4642 182.065 29.1048V34.7246C184.875 34.3979 186.247 33.483 186.247 31.9147ZM201.646 42.7949H195.307V21.0019H201.907V32.6335L209.487 21.0019H216.283V42.7949H209.683V30.4444L201.646 42.7949ZM218.701 43.187V37.3712C220.564 37.3712 221.936 36.1296 222.459 31.9801L223.798 21.0019H240.821V42.7949H234.221V26.7524H229.745L229.026 32.4702C227.981 41.0632 223.766 43.187 218.701 43.187ZM244.349 21.0019H250.949V27.8633H255.981C261.078 27.8633 263.822 31.2613 263.822 35.3128C263.822 39.3969 261.078 42.7949 255.981 42.7949H244.349V21.0019ZM255.131 33.6137H250.949V37.0444H255.131C256.242 37.0444 257.124 36.489 257.124 35.3128C257.124 34.1692 256.242 33.6137 255.131 33.6137Z" fill="#16161C"/>
<path d="M116.597 78.9102H109.115L108.331 76.3616H100.489L99.7051 78.9102H92.2229L100.261 57.1171H108.56L116.597 78.9102ZM106.566 70.6112L104.41 63.5864L102.254 70.6112H106.566ZM124.372 78.9102H117.772V57.1171H129.404C134.501 57.1171 137.245 60.5151 137.245 64.5993C137.245 68.6508 134.501 72.0488 129.404 72.0488H124.372V78.9102ZM128.554 66.2983C129.665 66.2983 130.547 65.7428 130.547 64.5993C130.547 63.423 129.665 62.8676 128.554 62.8676H124.372V66.2983H128.554ZM165.283 78.9102H158.683V65.8082L153.814 78.9102H150.874L146.005 65.8082V78.9102H139.405V57.1171H148.521L152.344 67.5725L156.167 57.1171H165.283V78.9102ZM190.846 78.9102H183.364L182.58 76.3616H174.738L173.954 78.9102H166.472L174.509 57.1171H182.808L190.846 78.9102ZM180.815 70.6112L178.659 63.5864L176.502 70.6112H180.815Z" fill="#F38707"/>
<path d="M64.725 86.7051L48.7931 0H32.3633V9.9661H39.8314L47.9008 57.8034H32.3633V67.7695H49.5819L52.7761 86.7051H64.725Z" fill="#16161C"/>
</svg>
