<svg width="79" height="93" viewBox="0 0 79 93" fill="none" xmlns="http://www.w3.org/2000/svg">
<g clip-path="url(#clip0_840_19224)">
<path d="M41.7961 80.3951V91.7756C41.7961 92.01 42.0316 92.1279 42.1493 92.1279C44.8572 91.8928 47.4474 91.4233 49.9198 90.7196C50.0375 90.7196 50.1553 90.4853 50.1553 90.3681V62.4454C50.1553 62.2108 50.0375 62.0934 49.8021 62.0934C47.3296 61.8588 44.7395 61.6242 42.1493 61.5068C41.9139 61.5068 41.7961 61.6242 41.7961 61.8588V71.9484H37.3222V61.8588C37.3222 61.6242 37.2044 61.5068 36.969 61.5068C34.3789 61.6242 31.7887 61.7415 29.3162 61.9761C29.0807 61.9761 28.963 62.0934 28.963 62.3281V90.2502C28.963 90.3681 29.0807 90.6024 29.1985 90.6024C31.6709 91.3062 34.2611 91.7756 36.969 92.0099C37.2044 92.0099 37.3222 91.8928 37.3222 91.6585V80.278H41.7961V80.3951Z" fill="#265841"/>
<path d="M26.6087 62.4453C23.4299 62.9145 20.3688 63.5012 17.4255 64.3225C17.3078 64.3225 17.19 64.4398 17.19 64.5571L13.658 72.0656H12.9515V66.1996C12.9515 65.9649 12.716 65.7303 12.4806 65.8476C10.3614 66.5515 8.3599 67.3728 6.47611 68.3113C6.12291 68.546 5.76971 68.6633 5.4165 68.8979C5.29877 69.0152 5.18103 69.2499 5.29877 69.3672C8.00669 74.412 11.421 78.9876 15.3062 82.6245C15.4239 82.7416 15.7771 82.7416 15.8949 82.5073L18.0141 78.1663H18.6028V85.2052C18.6028 85.3232 18.6028 85.4403 18.7205 85.4403C21.0753 87.2001 23.6654 88.6076 26.491 89.7808C26.7265 89.898 26.962 89.6637 26.962 89.4293V62.7972C26.962 62.5626 26.7265 62.3279 26.6087 62.4453Z" fill="#265841"/>
<path d="M70.4065 67.8421C69.5824 67.2555 66.639 65.7303 64.873 65.0264C64.7553 64.9091 64.5198 65.0264 64.402 65.2611C63.8134 66.5516 61.1055 71.9484 61.1055 71.9484H60.5168V64.3225C60.5168 64.2052 60.3991 63.9705 60.2813 63.9705C57.8089 63.3839 55.2188 62.9146 52.6286 62.4453C52.3931 62.4453 52.2754 62.5626 52.2754 62.7973V89.3116C52.2754 89.5467 52.5109 89.781 52.7463 89.6639C55.4543 88.4907 58.0444 87.0824 60.5168 85.3226C60.6345 85.2054 60.6345 85.2054 60.6345 85.0882V80.2783C62.1651 80.1611 63.8134 80.7477 64.6375 81.5687C66.4036 79.8089 68.4051 77.5797 69.9356 75.468C70.0533 75.3506 70.0533 75.116 69.9356 74.9987C69.347 74.5294 68.7583 74.0601 68.0518 73.5908L70.642 68.1941C70.642 68.1941 70.642 67.9594 70.4065 67.8421Z" fill="#265841"/>
<path d="M53.3358 3.66766C53.5713 3.55034 53.5713 3.19838 53.2181 3.08106C50.2747 1.79053 47.0959 0.969283 43.7993 0.5C40.385 11.5281 40.385 24.5508 39.9141 57.8699C40.2673 57.8699 40.5027 57.8699 40.8559 57.8699C42.0332 32.1766 42.2687 11.2935 53.3358 3.66766Z" fill="#1E2227"/>
<path d="M47.3298 33.1151C51.4505 20.9137 57.9259 14.813 67.6979 14.4611C67.9334 14.4611 68.1689 14.1091 67.9334 13.8745C65.5787 11.0587 62.8709 8.71235 59.9275 6.60059C50.6264 9.88554 46.5057 17.9807 44.2687 32.5285C43.2091 39.3331 42.385 47.8975 41.9141 57.8698C42.2673 57.8698 42.5027 57.8698 42.8559 57.8698C43.3269 49.8919 45.2107 39.5677 47.3298 33.1151Z" fill="#1E2227"/>
<path d="M49.3304 42.7352C56.8654 28.1874 70.0517 26.3103 77.3513 33.4669C77.5868 33.7015 78.0577 33.4669 77.94 33.1149C76.7626 28.4221 74.9966 24.0813 72.6419 20.2096C55.9235 15.6342 45.6806 34.7574 43.7969 57.9869C44.1501 57.9869 44.3856 57.9869 44.7387 57.9869C45.6806 51.6516 46.6225 48.132 49.3304 42.7352Z" fill="#1E2227"/>
<path d="M78.7651 41.0927C72.4075 33.5842 60.634 31.707 52.5102 42.0313C49.5669 45.6682 46.7413 51.065 45.6816 58.1043C46.0348 58.1043 46.3881 58.1043 46.6236 58.2216C48.2718 51.1823 52.7457 47.428 56.8665 46.2548C66.5207 43.3218 76.0572 50.3611 76.8813 58.4562C76.8813 58.8082 77.4701 58.6909 77.5878 58.4562C78.5297 54.5846 79.0006 50.5957 79.0006 46.3722C79.0006 44.495 78.8829 42.7352 78.7651 41.0927Z" fill="#1E2227"/>
<path d="M35.0865 0.5C31.7899 0.969283 28.6111 1.79053 25.6677 3.08106C25.4322 3.19838 25.4322 3.55034 25.55 3.66766C36.6171 11.1762 36.9703 32.1766 38.0299 57.8699C38.3831 57.8699 38.6185 57.8699 38.9717 57.8699C38.5008 24.5508 38.5008 11.5281 35.0865 0.5Z" fill="#1E2227"/>
<path d="M34.7315 32.5284C32.4945 17.9806 28.3738 9.88544 18.9551 6.71777C16.0117 8.71225 13.4215 11.176 10.9491 13.9916C10.7136 14.2263 10.9491 14.5783 11.1845 14.5783C20.9565 14.9303 27.432 21.0309 31.5527 33.2323C33.6719 39.5676 35.5556 50.0092 36.0266 57.987C36.3798 57.987 36.6153 57.987 36.9685 57.987C36.6153 47.8974 35.9088 39.4503 34.7315 32.5284Z" fill="#1E2227"/>
<path d="M6.35767 20.2096C4.00297 24.0813 2.23695 28.4221 1.0596 33.1149C0.941867 33.4669 1.4128 33.7015 1.64828 33.4669C8.94782 26.3103 22.1341 28.3048 29.6691 42.7352C32.3771 48.0147 33.4366 51.5343 34.2608 57.9869C34.614 57.9869 34.8495 57.9869 35.2027 57.9869C33.3189 34.7574 23.076 15.6342 6.35767 20.2096Z" fill="#1E2227"/>
<path d="M26.4904 42.0313C18.3666 31.8244 6.59315 33.7015 0.23547 41.0927C0.117735 42.7352 0 44.495 0 46.1374C0 50.361 0.470939 54.3499 1.41282 58.2215C1.53055 58.5735 2.00149 58.5735 2.11922 58.2215C3.29658 50.2437 11.8912 43.5564 22.1341 46.0201C26.3726 47.076 30.7288 50.9476 32.377 57.9869C32.7303 57.9869 32.9658 57.9869 33.319 57.8696C32.2593 51.0649 29.4337 45.6682 26.4904 42.0313Z" fill="#1E2227"/>
</g>
<defs>
<clipPath id="clip0_840_19224">
<rect width="79" height="92" fill="white" transform="translate(0 0.5)"/>
</clipPath>
</defs>
</svg>
