<svg width="32" height="32" viewBox="0 0 32 32" fill="none" xmlns="http://www.w3.org/2000/svg">
<path d="M14.5997 17.4665L21.0663 10.9998L19.4773 9.41084L14.5997 14.2888L12.533 12.2222L10.944 13.8108L14.5997 17.4665ZM15.9997 26.3998C18.8737 23.7776 20.9996 21.3979 22.3773 19.2608C23.7551 17.1239 24.444 15.2369 24.444 13.5998C24.444 11.0443 23.6273 8.9535 21.994 7.3275C20.3607 5.70173 18.3626 4.88884 15.9997 4.88884C13.6368 4.88884 11.6387 5.70173 10.0053 7.3275C8.37201 8.9535 7.55534 11.0443 7.55534 13.5998C7.55534 15.2369 8.25534 17.1239 9.65534 19.2608C11.0553 21.3979 13.1701 23.7776 15.9997 26.3998ZM15.9997 29.3332C12.4219 26.2887 9.74967 23.4609 7.98301 20.8498C6.21634 18.2387 5.33301 15.8221 5.33301 13.5998C5.33301 10.2665 6.40523 7.61095 8.54967 5.63317C10.6941 3.65539 13.1775 2.6665 15.9997 2.6665C18.8219 2.6665 21.3052 3.65539 23.4497 5.63317C25.5941 7.61095 26.6663 10.2665 26.6663 13.5998C26.6663 15.8221 25.783 18.2387 24.0163 20.8498C22.2497 23.4609 19.5775 26.2887 15.9997 29.3332Z" fill="#F48A0B"/>
</svg>
