<svg width="80" height="80" viewBox="0 0 80 80" fill="none" xmlns="http://www.w3.org/2000/svg">
<g clip-path="url(#clip0_840_19298)">
<path d="M56.068 43.173L58.7507 34.757C59.2376 33.2328 58.9098 31.5655 57.882 30.3392C56.8542 29.1129 55.2698 28.4986 53.684 28.7116L53.8173 28.285C54.3497 26.6208 53.9079 24.7987 52.6724 23.5633C51.4369 22.3278 49.6148 21.8859 47.9507 22.4183C47.5797 20.963 46.5342 19.7733 45.1387 19.2183C44.3953 18.9244 43.5865 18.8364 42.7973 18.9636L44.36 14.069C44.6651 13.092 44.6388 12.0415 44.2853 11.081C44.9314 10.3693 45.4155 9.52589 45.704 8.60898C52.1241 9.80846 58.07 12.8108 62.8467 17.265L61.964 18.1476C61.6174 18.4824 61.4784 18.9782 61.6004 19.4443C61.7224 19.9105 62.0865 20.2746 62.5527 20.3966C63.0188 20.5186 63.5146 20.3796 63.8493 20.033L64.7227 19.1596C70.3487 25.2131 73.6291 33.076 73.9733 41.333H72.6667C71.9303 41.333 71.3333 41.9299 71.3333 42.6663C71.3333 43.4027 71.9303 43.9996 72.6667 43.9996H75.3333C76.0697 43.9996 76.6667 43.4027 76.6667 42.6663C76.5873 24.619 63.6739 9.18364 45.924 5.91965C45.5648 2.55012 42.7219 -0.00585938 39.3333 -0.00585938C35.9447 -0.00585938 33.1018 2.55012 32.7427 5.91965C14.9934 9.18462 2.08046 24.6194 2 42.6663C2 43.4027 2.59695 43.9996 3.33333 43.9996H6C6.73638 43.9996 7.33333 43.4027 7.33333 42.6663C7.33333 41.9299 6.73638 41.333 6 41.333H4.69333C5.03955 33.0775 8.32082 25.2166 13.9467 19.165L14.82 20.0383C15.3432 20.5436 16.1748 20.5364 16.6891 20.0221C17.2034 19.5078 17.2106 18.6762 16.7053 18.153L15.8227 17.2703C20.6003 12.815 26.5477 9.81212 32.9693 8.61298C33.375 9.91791 34.1707 11.0673 35.2493 11.9063L31.616 23.3023L29.7093 22.6943C28.5298 22.3174 27.2489 22.4248 26.1486 22.9927C25.0482 23.5606 24.2187 24.5425 23.8427 25.7223L21.1107 34.289C20.275 37.0158 20.6524 39.9704 22.1467 42.3996C22.6539 43.242 22.977 44.1821 23.0947 45.1583C23.1495 45.5826 23.1661 46.011 23.144 46.4383C23.0669 48.5256 24.3986 50.4055 26.3933 51.025L41.5587 55.8663C43.6976 56.5512 46.0347 55.7881 47.3573 53.973L48.148 52.8876C48.4329 52.5256 48.798 52.2349 49.2147 52.0383C52.316 50.441 55.2347 45.7837 56.068 43.173ZM39.3333 2.66631C40.8106 2.65949 42.1698 3.47284 42.8619 4.77797C43.5541 6.0831 43.465 7.6645 42.6307 8.88365C42.3192 8.65051 41.9796 8.45744 41.62 8.30898C40.4459 7.84966 39.1331 7.90285 38 8.45565C37.4599 8.72059 36.9727 9.08209 36.5627 9.52231C35.3895 8.39444 35.0203 6.66641 35.63 5.15756C36.2398 3.64872 37.7059 2.66242 39.3333 2.66631ZM48 49.665C47.2138 50.05 46.5288 50.614 46 51.3117L45.2 52.3997C44.5544 53.2883 43.4109 53.6615 42.3653 53.325L27.2 48.485C26.3555 48.2341 25.7839 47.4484 25.8053 46.5676C25.8338 45.9864 25.8115 45.4037 25.7387 44.8263C25.5739 43.4801 25.1268 42.1839 24.4267 41.0223C23.3294 39.2506 23.0472 37.0926 23.652 35.0983L26.3867 26.533C26.723 25.4812 27.8481 24.9011 28.9 25.237L30.804 25.8436L27.5627 35.9996C27.3392 36.7014 27.7269 37.4515 28.4287 37.675C29.1304 37.8985 29.8805 37.5107 30.104 36.809L37.9467 12.2303C38.1069 11.678 38.4834 11.2138 38.9907 10.943C39.4981 10.6721 40.0932 10.6175 40.6413 10.7916C41.6193 11.1814 42.131 12.2595 41.8147 13.2636L35.1813 34.0636C34.9578 34.7654 35.3456 35.5155 36.0473 35.739C36.7491 35.9625 37.4992 35.5748 37.7227 34.873L41.4733 23.1116C41.6405 22.5677 42.0182 22.1131 42.5222 21.849C43.0262 21.5848 43.6149 21.533 44.1573 21.705C45.1378 22.0943 45.6502 23.1756 45.3307 24.181L41.532 36.0876C41.3081 36.7898 41.6959 37.5405 42.398 37.7643C43.1001 37.9882 43.8508 37.6005 44.0747 36.8983C44.9213 34.2196 47.4467 26.321 47.4667 26.2596C47.8051 25.2108 48.9281 24.6334 49.9781 24.9684C51.028 25.3034 51.609 26.4247 51.2773 27.4756L49.9133 31.7556V31.7636L47.8867 38.1143C47.6632 38.8161 48.0509 39.5662 48.7527 39.7896C49.4544 40.0131 50.2045 39.6254 50.428 38.9236L52.4 32.737C52.5957 32.0307 53.162 31.488 53.876 31.3226C54.59 31.1571 55.3373 31.3955 55.8236 31.9438C56.31 32.4921 56.4574 33.2625 56.208 33.9516L53.5253 42.3676C52.8493 44.485 50.2987 48.4797 48 49.665Z" fill="#F48A0B"/>
<path d="M27.2653 61.0274C27.156 60.6909 26.9166 60.4121 26.6006 60.2531C26.2845 60.094 25.918 60.068 25.5827 60.1807L22.6253 61.1567L24.2253 57.9567C24.5567 57.298 24.2914 56.4954 23.6327 56.164C22.974 55.8327 22.1714 56.098 21.84 56.7567L19.048 62.334L15.3333 63.566V59.534L19.6813 55.1087C20.0379 54.7737 20.1824 54.2704 20.0578 53.7973C19.9332 53.3243 19.5595 52.9574 19.0842 52.8415C18.6089 52.7257 18.1083 52.8794 17.78 53.242L15.3333 55.7327V52.5687C15.3333 51.8323 14.7364 51.2354 14 51.2354C13.2636 51.2354 12.6667 51.8323 12.6667 52.5687V55.7327L10.22 53.2394C9.69858 52.7495 8.88348 52.7585 8.37296 53.2597C7.86244 53.7609 7.83848 54.5757 8.31867 55.106L12.6667 59.534V63.566L8.948 62.338L6.156 56.7607C5.82463 56.102 5.02203 55.8366 4.36333 56.168C3.70464 56.4994 3.4393 57.302 3.77067 57.9607L5.37067 61.1607L2.41333 60.1847C1.9608 60.0356 1.46309 60.1392 1.1077 60.4566C0.75231 60.774 0.593223 61.2568 0.690368 61.7233C0.787513 62.1897 1.12613 62.5689 1.57867 62.718L4.57333 63.7074L1.42533 65.3327C0.878874 65.6157 0.597061 66.2359 0.743331 66.8336C0.889601 67.4314 1.42595 67.8514 2.04133 67.85C2.25498 67.8504 2.4655 67.7987 2.65467 67.6994L8.12133 64.8674L11.8707 66.106L9.53733 69.3754L3.46667 70.3554C2.98878 70.4229 2.58472 70.7435 2.4102 71.1934C2.23568 71.6434 2.31796 72.1526 2.62533 72.5247C2.9327 72.8968 3.41716 73.0738 3.892 72.9874L7.34667 72.4314L5.50267 75.0234C5.07483 75.6231 5.21422 76.4562 5.814 76.884C6.41378 77.3119 7.24683 77.1725 7.67467 76.5727L9.47733 74.0394L10.0213 77.5314C10.1475 78.2457 10.8215 78.7281 11.5384 78.6171C12.2552 78.5061 12.7518 77.8424 12.656 77.1234L11.6947 70.934L14 67.7074L16.3053 70.9394L15.344 77.1287C15.26 77.6044 15.4399 78.0883 15.8142 78.3937C16.1885 78.6991 16.6987 78.7781 17.1479 78.6002C17.597 78.4224 17.9149 78.0155 17.9787 77.5367L18.5227 74.0447L20.3253 76.578C20.7532 77.1778 21.5862 77.3172 22.186 76.8894C22.7858 76.4615 22.9252 75.6285 22.4973 75.0287L20.648 72.4367L24.1027 72.9927C24.5775 73.0791 25.062 72.9021 25.3693 72.53C25.6767 72.1579 25.759 71.6488 25.5845 71.1988C25.41 70.7488 25.0059 70.4282 24.528 70.3607L18.4693 69.3834L16.1333 66.1087L19.8827 64.87L25.3493 67.702C25.5385 67.8013 25.749 67.853 25.9627 67.8527C26.5794 67.8546 27.1169 67.4333 27.2624 66.834C27.4079 66.2348 27.1235 65.6139 26.5747 65.3327L23.4227 63.698L26.4173 62.7087C27.1151 62.4778 27.4944 61.7257 27.2653 61.0274Z" fill="#F48A0B"/>
<path d="M64.6667 58.666C60.9848 58.666 58 61.6508 58 65.3327C58 69.0146 60.9848 71.9993 64.6667 71.9993C68.3486 71.9993 71.3333 69.0146 71.3333 65.3327C71.3289 61.6526 68.3467 58.6704 64.6667 58.666ZM64.6667 69.3327C62.4575 69.3327 60.6667 67.5418 60.6667 65.3327C60.6667 63.1235 62.4575 61.3327 64.6667 61.3327C66.8758 61.3327 68.6667 63.1235 68.6667 65.3327C68.6667 67.5418 66.8758 69.3327 64.6667 69.3327Z" fill="#F48A0B"/>
<path d="M75.3333 60.8658V55.9992C75.3333 55.2628 74.7364 54.6658 74 54.6658H69.1333L65.6213 51.0658C65.0895 50.5497 64.2438 50.5497 63.712 51.0658L60.2 54.6658H55.3333C54.597 54.6658 54 55.2628 54 55.9992V60.8658L50.4 64.3778C50.1426 64.6288 49.9975 64.973 49.9975 65.3325C49.9975 65.692 50.1426 66.0362 50.4 66.2872L54 69.7992V74.6658C54 75.4022 54.597 75.9992 55.3333 75.9992H60.2L63.712 79.5992C63.9629 79.8566 64.3072 80.0017 64.6667 80.0017C65.0261 80.0017 65.3704 79.8566 65.6213 79.5992L69.1333 75.9992H74C74.7364 75.9992 75.3333 75.4022 75.3333 74.6658V69.7992L78.9333 66.2872C79.1907 66.0362 79.3359 65.692 79.3359 65.3325C79.3359 64.973 79.1907 64.6288 78.9333 64.3778L75.3333 60.8658ZM73.0667 68.2832C72.8102 68.5346 72.666 68.8787 72.6667 69.2378V73.3325H68.572C68.2129 73.3318 67.8687 73.4761 67.6173 73.7325L64.6667 76.7565L61.716 73.7325C61.4646 73.4761 61.1204 73.3318 60.7613 73.3325H56.6667V69.2378C56.6673 68.8787 56.5231 68.5346 56.2667 68.2832L53.2427 65.3325L56.2667 62.3818C56.5231 62.1305 56.6673 61.7863 56.6667 61.4272V57.3325H60.7613C61.1204 57.3332 61.4646 57.189 61.716 56.9325L64.6667 53.9085L67.6173 56.9325C67.8687 57.189 68.2129 57.3332 68.572 57.3325H72.6667V61.4272C72.666 61.7863 72.8102 62.1305 73.0667 62.3818L76.0907 65.3325L73.0667 68.2832Z" fill="#F48A0B"/>
</g>
<defs>
<clipPath id="clip0_840_19298">
<rect width="80" height="80" fill="white"/>
</clipPath>
</defs>
</svg>
