<svg width="32" height="32" viewBox="0 0 32 32" fill="none" xmlns="http://www.w3.org/2000/svg">
<path d="M11.9993 24H26.666V20.4333H11.9993V24ZM5.33268 11.5666H9.33268V7.99998H5.33268V11.5666ZM5.33268 17.8H9.33268V14.2333H5.33268V17.8ZM5.33268 24H9.33268V20.4333H5.33268V24ZM11.9993 17.8H26.666V14.2333H11.9993V17.8ZM11.9993 11.5666H26.666V7.99998H11.9993V11.5666ZM5.33268 26.6666C4.59935 26.6666 3.97157 26.4055 3.44935 25.8833C2.92713 25.3611 2.66602 24.7333 2.66602 24V7.99998C2.66602 7.26665 2.92713 6.63887 3.44935 6.11665C3.97157 5.59442 4.59935 5.33331 5.33268 5.33331H26.666C27.3994 5.33331 28.0271 5.59442 28.5494 6.11665C29.0716 6.63887 29.3327 7.26665 29.3327 7.99998V24C29.3327 24.7333 29.0716 25.3611 28.5494 25.8833C28.0271 26.4055 27.3994 26.6666 26.666 26.6666H5.33268Z" fill="#16161C"/>
</svg>
